<svg width="0" height="0">
				<symbol
					xmlns="http://www.w3.org/2000/svg"
					id="add-violator"
					fill="none"
					viewBox="0 0 21 21"
				>
					<path
						fill="currentColor"
						d="M12.56 20.76H8.64V12.8H.72V8.92h7.92V.96h3.92v7.96h7.96v3.88h-7.96v7.96Z"
					/>
				</symbol>
				<symbol
					xmlns="http://www.w3.org/2000/svg"
					id="apartment"
					fill="none"
					viewBox="0 0 29 29"
				>
					<g fill="currentColor" clip-path="url(#a)">
						<path d="M9.75 7.8h1.7v1.7h-1.7V7.8Zm0 3.9h1.7v1.7h-1.7v-1.7Zm7.8 0h1.7v1.7h-1.7v-1.7Zm3.9 0h1.7v1.7h-1.7v-1.7Zm-3.9 3.9h1.7v1.7h-1.7v-1.7Zm3.9 0h1.7v1.7h-1.7v-1.7Zm-3.9 3.9h1.7v1.7h-1.7v-1.7Zm3.9 0h1.7v1.7h-1.7v-1.7Zm-3.9 3.9h1.7v1.7h-1.7v-1.7Zm3.9 0h1.7v1.7h-1.7v-1.7ZM5.85 11.7h1.7v1.7h-1.7v-1.7Zm3.9 3.9h1.7v1.7h-1.7v-1.7Zm-3.9 0h1.7v1.7h-1.7v-1.7Zm3.9 3.9h1.7v1.7h-1.7v-1.7Zm-3.9 0h1.7v1.7h-1.7v-1.7Z" />
						<path d="M27.05 27.3V7.8h-11.7V3.747l-1.95.325V0H3.9v5.655l-1.95.325V27.3H0V29h29v-1.7h-1.95Zm-1.7-17.8v17.8h-10V9.5h10ZM5.6 1.7h6.1v2.655L5.6 5.372V1.699ZM3.65 7.42l10-1.667V27.3h-2.2v-3.9h-5.6v3.9h-2.2V7.42Zm6.1 19.88h-2.2v-2.2h2.2v2.2Z" />
					</g>
					<defs>
						<clipPath id="a">
							<path fill="currentColor" d="M0 0h29v29H0z" />
						</clipPath>
					</defs>
				</symbol>
				<symbol
					xmlns="http://www.w3.org/2000/svg"
					id="arrow-down"
					fill="none"
					viewBox="0 0 15 15"
				>
					<g clip-path="url(#a)">
						<path
							fill="currentColor"
							d="M1.89 3.338a.823.823 0 0 0-1.161 0l-.491.491a.812.812 0 0 0-.241.58c0 .219.085.426.24.579l6.675 6.673a.8.8 0 0 0 .582.238c.22 0 .427-.085.582-.238l6.683-6.676a.812.812 0 0 0 .241-.58.807.807 0 0 0-.24-.579l-.492-.494a.812.812 0 0 0-.579-.24.806.806 0 0 0-.58.24L7.498 8.945 1.89 3.338Z"
						/>
					</g>
				</symbol>
				<symbol
					xmlns="http://www.w3.org/2000/svg"
					id="arrow-pagination"
					fill="none"
					viewBox="0 0 29 21"
				>
					<path
						fill="currentColor"
						fill-rule="evenodd"
						d="M5.103 9.213H28.5v2.297H2.675L.894 10.4l.003-.003 10.094-9.5V3.57L5.103 9.213ZM10.709 20.2 4.51 14l2.917-.021 3.276 3.276.006 2.945Z"
						clip-rule="evenodd"
					/>
				</symbol>
				<symbol
					xmlns="http://www.w3.org/2000/svg"
					id="arrow-right-thin"
					fill="none"
					viewBox="0 0 16 16"
				>
					<g clip-path="url(#a)">
						<path
							fill="currentColor"
							fill-opacity=".47"
							d="M15.817 7.558v-.001l-3.267-3.25a.625.625 0 0 0-.881.886l2.192 2.182H.625a.625.625 0 1 0 0 1.25h13.236l-2.192 2.182a.625.625 0 1 0 .881.886l3.266-3.25a.626.626 0 0 0 0-.885Z"
						/>
					</g>
				</symbol>
				<symbol
					xmlns="http://www.w3.org/2000/svg"
					id="arrow-right"
					fill="none"
					viewBox="0 0 33 33"
				>
					<g clip-path="url(#a)">
						<path
							fill="currentColor"
							d="M7.344 28.841a1.81 1.81 0 0 0 0 2.556l1.08 1.08c.342.342.791.53 1.274.53s.94-.188 1.275-.53l14.682-14.682a1.77 1.77 0 0 0 .523-1.282 1.82 1.82 0 0 0-.523-1.28L10.966.53A1.785 1.785 0 0 0 9.692 0c-.483 0-.94.188-1.275.53L7.331 1.61c-.342.342-.53.791-.53 1.274s.188.94.53 1.275l12.348 12.348L7.344 28.84Z"
						/>
					</g>
				</symbol>
				<symbol
					xmlns="http://www.w3.org/2000/svg"
					id="arrow-top-double"
					fill="none"
					viewBox="0 0 23 31"
				>
					<g clip-path="url(#a)">
						<path
							fill="currentColor"
							d="M19.437 17.29a1.22 1.22 0 0 0 1.722 0l.728-.728c.23-.23.357-.534.357-.859 0-.325-.127-.633-.357-.859L11.992 4.95a1.191 1.191 0 0 0-.863-.353 1.23 1.23 0 0 0-.864.353L.357 14.849c-.23.23-.357.533-.357.858 0 .326.127.633.357.86l.728.732c.23.23.533.357.859.357.325 0 .632-.127.858-.357l8.322-8.322 8.313 8.313Z"
						/>
					</g>
					<g clip-path="url(#b)">
						<path
							fill="currentColor"
							d="M19.437 26.05a1.22 1.22 0 0 0 1.722 0l.728-.727c.23-.23.357-.534.357-.86 0-.325-.127-.632-.357-.858l-9.895-9.895a1.192 1.192 0 0 0-.863-.352 1.23 1.23 0 0 0-.864.352l-9.908 9.9c-.23.23-.357.533-.357.858 0 .326.127.633.357.86l.728.732c.23.23.533.357.859.357.325 0 .632-.127.858-.358l8.322-8.321 8.313 8.312Z"
						/>
					</g>
					<defs>
						<clipPath id="b">
							<path
								fill="currentColor"
								d="M0 31V8.761h22.239V31z"
							/>
						</clipPath>
					</defs>
				</symbol>
				<symbol
					xmlns="http://www.w3.org/2000/svg"
					id="burger"
					fill="none"
					viewBox="0 0 26 26"
				>
					<g fill="currentColor" clip-path="url(#a)">
						<path d="M1.58 6.423h22.84c.871 0 1.58-.708 1.58-1.58 0-.871-.709-1.58-1.58-1.58H1.58c-.87 0-1.58.709-1.58 1.58 0 .872.71 1.58 1.58 1.58Zm22.84 4.997H1.58C.71 11.42 0 12.128 0 13c0 .871.71 1.58 1.58 1.58h22.84c.871 0 1.58-.709 1.58-1.58 0-.871-.709-1.58-1.58-1.58Zm0 8.156H1.58c-.87 0-1.58.71-1.58 1.581 0 .872.71 1.58 1.58 1.58h22.84a1.582 1.582 0 0 0 0-3.16Z" />
					</g>
				</symbol>
				<symbol
					xmlns="http://www.w3.org/2000/svg"
					id="calendar"
					fill="none"
					viewBox="0 0 29 29"
				>
					<g fill="currentColor" clip-path="url(#a)">
						<path d="M4.382 29h20.236a3.848 3.848 0 0 0 3.845-3.845V5.993a3.848 3.848 0 0 0-3.845-3.845h-1.525V1.074c0-.59-.484-1.074-1.075-1.074-.59 0-1.074.483-1.074 1.074v1.074H8.056V1.074C8.056.484 7.572 0 6.98 0c-.59 0-1.074.483-1.074 1.074v1.074H4.382A3.848 3.848 0 0 0 .537 5.993v19.162A3.848 3.848 0 0 0 4.382 29ZM2.685 5.993a1.7 1.7 0 0 1 1.697-1.697h1.525V5.37c0 .591.484 1.074 1.074 1.074.591 0 1.075-.483 1.075-1.074V4.296h12.888V5.37c0 .591.484 1.074 1.075 1.074.59 0 1.074-.483 1.074-1.074V4.296h1.525a1.7 1.7 0 0 1 1.697 1.697v19.162a1.7 1.7 0 0 1-1.697 1.697H4.382a1.7 1.7 0 0 1-1.697-1.697V5.993Z" />
						<path d="M8.324 12.352a1.343 1.343 0 1 0 0-2.685 1.343 1.343 0 0 0 0 2.685Zm5.908 0a1.343 1.343 0 1 0 0-2.685 1.343 1.343 0 0 0 0 2.685Zm5.907 0a1.343 1.343 0 1 0 0-2.685 1.343 1.343 0 0 0 0 2.685Zm-11.815 5.37a1.342 1.342 0 1 0 0-2.685 1.342 1.342 0 0 0 0 2.685Zm5.908 0a1.343 1.343 0 1 0 0-2.685 1.343 1.343 0 0 0 0 2.685Zm5.907 0a1.343 1.343 0 1 0 0-2.685 1.343 1.343 0 0 0 0 2.685ZM8.324 23.093a1.343 1.343 0 1 0 0-2.686 1.343 1.343 0 0 0 0 2.686Zm5.908 0a1.343 1.343 0 1 0 0-2.686 1.343 1.343 0 0 0 0 2.686Zm5.907 0a1.343 1.343 0 1 0 0-2.686 1.343 1.343 0 0 0 0 2.686Z" />
					</g>
				</symbol>
				<symbol
					xmlns="http://www.w3.org/2000/svg"
					id="car"
					fill="none"
					viewBox="0 0 35 35"
				>
					<g clip-path="url(#a)">
						<path
							fill="currentColor"
							d="m33.178 15.377-2.811-1.284-2.482-3.959a3.909 3.909 0 0 0-3.335-1.836H13.978a3.944 3.944 0 0 0-3.134 1.542l-3.206 4.196L2.295 15.5A3.133 3.133 0 0 0 0 18.52v2.044c0 1.728 1.377 3.155 3.106 3.155h.459a3.982 3.982 0 0 0 4.855 2.855 3.981 3.981 0 0 0 2.855-2.855h12.049a3.982 3.982 0 0 0 4.855 2.855 3.981 3.981 0 0 0 2.855-2.855h.86c1.729 0 3.106-1.427 3.106-3.155v-2.331a3.125 3.125 0 0 0-1.822-2.855ZM7.416 25.253a2.547 2.547 0 1 1 .001-5.093 2.547 2.547 0 0 1-.001 5.093Zm19.76 0a2.547 2.547 0 1 1 0-5.093 2.547 2.547 0 0 1 0 5.093Zm4.718-2.969h-.76a3.978 3.978 0 0 0-4.396-3.521 3.975 3.975 0 0 0-3.522 3.521H11.375a3.977 3.977 0 0 0-4.397-3.521 3.975 3.975 0 0 0-3.521 3.521h-.359c-.94 0-1.67-.782-1.67-1.721v-2.044a1.69 1.69 0 0 1 1.24-1.643l5.587-1.527a.7.7 0 0 0 .38-.259l3.342-4.382a2.535 2.535 0 0 1 2.002-.975H24.55a2.47 2.47 0 0 1 2.123 1.162l2.596 4.145a.708.708 0 0 0 .309.273l2.998 1.37c.602.28.99.882.982 1.549v2.33h.008c0 .94-.732 1.722-1.672 1.722Z"
						/>
					</g>
				</symbol>
				<symbol
					xmlns="http://www.w3.org/2000/svg"
					id="case"
					fill="none"
					viewBox="0 0 29 29"
				>
					<path
						fill="currentColor"
						d="M28.156 5.155h-7.709v-.85a2.552 2.552 0 0 0-2.549-2.55h-6.796a2.552 2.552 0 0 0-2.55 2.55v.85H.85a.852.852 0 0 0-.85.849v18.691a2.552 2.552 0 0 0 2.549 2.55H26.45A2.552 2.552 0 0 0 29 24.694V6.02c-.032-.558-.376-.861-.844-.864Zm-17.904-.85a.85.85 0 0 1 .85-.85h6.796a.85.85 0 0 1 .85.85v.85h-8.496v-.85Zm16.72 2.549-2.639 7.915a.848.848 0 0 1-.806.58h-4.779V14.5a.85.85 0 0 0-.85-.85h-6.796a.85.85 0 0 0-.85.85v.85h-4.78a.848.848 0 0 1-.805-.581L2.028 6.854h24.944Zm-9.923 8.496v1.699H11.95v-1.7h5.098ZM27.3 24.695a.85.85 0 0 1-.85.85H2.55a.85.85 0 0 1-.85-.85V11.24l1.356 4.067a2.545 2.545 0 0 0 2.418 1.743h4.779v.85c0 .469.38.849.85.849h6.796c.47 0 .85-.38.85-.85v-.85h4.78c1.098 0 2.07-.7 2.417-1.742l1.356-4.067v13.456Z"
					/>
				</symbol>
				<symbol
					xmlns="http://www.w3.org/2000/svg"
					id="clipboard"
					fill="none"
					viewBox="0 0 31 31"
				>
					<path
						fill="currentColor"
						d="M22.281 0H10.656c-2.05 0-3.875 1.88-3.875 3.875l-1.12.026c-2.049 0-3.723 1.854-3.723 3.849v19.375C1.938 29.12 3.763 31 5.813 31h14.53c2.05 0 3.876-1.88 3.876-3.875h.968c2.05 0 3.875-1.88 3.875-3.875V7.773L22.282 0Zm-1.937 29.063H5.813c-1.018 0-1.938-.95-1.938-1.938V7.75c0-.987.828-1.906 1.846-1.906l1.06-.031V23.25c0 1.995 1.825 3.875 3.875 3.875h11.625c0 .987-.92 1.938-1.937 1.938Zm6.781-5.813c0 .987-.92 1.938-1.938 1.938h-14.53c-1.018 0-1.938-.95-1.938-1.938V3.875c0-.987.92-1.937 1.937-1.937h9.688c-.016 2.23 0 3.899 0 3.899 0 2.013 1.811 3.85 3.875 3.85h2.906V23.25Zm-2.906-15.5c-1.032 0-1.938-1.875-1.938-2.88V1.966l4.844 5.784h-2.906Zm-1.938 5.83h-8.718a.968.968 0 1 0 0 1.935h8.718a.968.968 0 1 0 0-1.935Zm0 4.839h-8.718a.968.968 0 1 0 0 1.935h8.718a.968.968 0 1 0 0-1.935Z"
					/>
				</symbol>
				<symbol
					xmlns="http://www.w3.org/2000/svg"
					id="cogwheel"
					fill="none"
					viewBox="0 0 29 29"
				>
					<g fill="currentColor" clip-path="url(#a)">
						<path d="M14.518 20.542A6.049 6.049 0 0 1 8.476 14.5a6.049 6.049 0 0 1 6.042-6.042 6.049 6.049 0 0 1 6.041 6.042 6.049 6.049 0 0 1-6.041 6.042Zm0-10.271a4.234 4.234 0 0 0-4.23 4.229 4.234 4.234 0 0 0 4.23 4.23 4.234 4.234 0 0 0 4.229-4.23 4.234 4.234 0 0 0-4.23-4.23Z" />
						<path d="M16.527 29h-4.019c-.966 0-1.82-.686-2.03-1.632l-.51-2.262a11.11 11.11 0 0 1-2.36-1.372l-2.203.696c-.945.294-1.972-.107-2.446-.953L.956 20.012a2.112 2.112 0 0 1 .387-2.578l1.708-1.57a12.225 12.225 0 0 1-.001-2.728l-1.698-1.563A2.11 2.11 0 0 1 .949 9l2.016-3.487c.468-.836 1.497-1.233 2.436-.944l2.206.697a11.124 11.124 0 0 1 2.362-1.372l.51-2.264A2.094 2.094 0 0 1 12.508 0h4.018c.967 0 1.821.686 2.031 1.632l.51 2.262c.828.352 1.618.811 2.36 1.372l2.203-.696c.947-.291 1.972.107 2.446.953l2.003 3.465a2.11 2.11 0 0 1-.388 2.578l-1.707 1.57a12.415 12.415 0 0 1 0 2.728l1.699 1.561A2.107 2.107 0 0 1 28.086 20l-2.015 3.486c-.468.837-1.495 1.236-2.438.944l-2.206-.697c-.742.56-1.532 1.02-2.361 1.371l-.51 2.265A2.09 2.09 0 0 1 16.527 29Zm-8.735-7.179c.208 0 .412.071.577.207a9.306 9.306 0 0 0 2.693 1.562.906.906 0 0 1 .57.651l.615 2.731a.271.271 0 0 0 .263.215h4.019a.27.27 0 0 0 .26-.212l.617-2.734a.906.906 0 0 1 .57-.65 9.324 9.324 0 0 0 2.693-1.563.903.903 0 0 1 .85-.166l2.66.84c.126.04.262-.007.32-.111l2.015-3.486a.295.295 0 0 0-.058-.35l-2.04-1.874a.906.906 0 0 1-.282-.802c.08-.535.12-1.067.12-1.58 0-.514-.04-1.046-.12-1.58a.907.907 0 0 1 .282-.802l2.045-1.88a.295.295 0 0 0 .047-.355l-2.003-3.465a.277.277 0 0 0-.329-.12l-2.656.838a.904.904 0 0 1-.85-.165 9.307 9.307 0 0 0-2.693-1.563.905.905 0 0 1-.57-.651l-.615-2.73a.277.277 0 0 0-.265-.213h-4.019a.27.27 0 0 0-.26.212l-.617 2.733a.907.907 0 0 1-.57.652 9.298 9.298 0 0 0-2.692 1.562.909.909 0 0 1-.85.166l-2.66-.84c-.124-.039-.262.007-.32.111L2.524 9.894a.296.296 0 0 0 .062.353l2.037 1.871a.906.906 0 0 1 .283.802c-.08.535-.12 1.066-.12 1.58s.04 1.045.12 1.58a.907.907 0 0 1-.283.802l-2.045 1.88a.296.296 0 0 0-.047.355l2.004 3.464c.064.115.201.16.328.121l2.656-.839a.882.882 0 0 1 .273-.042Z" />
					</g>
				</symbol>
				<symbol
					xmlns="http://www.w3.org/2000/svg"
					id="corner-arrow"
					fill="none"
					viewBox="0 0 51 53"
				>
					<path
						fill="currentColor"
						fill-rule="evenodd"
						d="M50.408 0v52h-8.322l-11.26-12.264L3.408 10.79 9.91 5l27.417 28.944 6.081 6.302V9.157l7-9.157ZM0 52.464h32.934l-6.894-6.997H7.027L0 52.464Z"
						clip-rule="evenodd"
					/>
				</symbol>
				<symbol
					xmlns="http://www.w3.org/2000/svg"
					id="coupon"
					fill="none"
					viewBox="0 0 27 27"
				>
					<g fill="currentColor" clip-path="url(#a)">
						<path d="M24.469 23.625H2.53A2.534 2.534 0 0 1 0 21.094v-4.219c0-.466.377-.844.844-.844A2.534 2.534 0 0 0 3.375 13.5a2.534 2.534 0 0 0-2.531-2.531.843.843 0 0 1-.844-.844V5.906a2.534 2.534 0 0 1 2.531-2.531H24.47A2.534 2.534 0 0 1 27 5.906v4.219a.843.843 0 0 1-.844.844 2.534 2.534 0 0 0-2.531 2.531 2.534 2.534 0 0 0 2.531 2.531c.467 0 .844.378.844.844v4.219a2.534 2.534 0 0 1-2.531 2.531ZM1.688 17.634v3.46c0 .465.378.843.843.843H24.47a.844.844 0 0 0 .843-.843v-3.46a4.226 4.226 0 0 1-3.375-4.134 4.226 4.226 0 0 1 3.375-4.134v-3.46a.844.844 0 0 0-.843-.844H2.53a.844.844 0 0 0-.843.844v3.46A4.226 4.226 0 0 1 5.063 13.5a4.226 4.226 0 0 1-3.375 4.134Z" />
						<path d="m10.18 19.942 5.06-13.495 1.58.592-5.06 13.496-1.58-.593Zm-.672-6.158a2.534 2.534 0 0 1-2.53-2.531 2.534 2.534 0 0 1 2.53-2.531 2.534 2.534 0 0 1 2.532 2.53 2.534 2.534 0 0 1-2.532 2.532Zm0-3.375a.844.844 0 1 0 .002 1.689.844.844 0 0 0-.002-1.689Zm8.722 8.608a2.534 2.534 0 0 1-2.531-2.531 2.534 2.534 0 0 1 2.531-2.532 2.534 2.534 0 0 1 2.531 2.532 2.534 2.534 0 0 1-2.531 2.53Zm0-3.375a.844.844 0 1 0 .001 1.689.844.844 0 0 0-.001-1.69Z" />
					</g>
				</symbol>
				<symbol
					xmlns="http://www.w3.org/2000/svg"
					id="credit-card"
					fill="none"
					viewBox="0 0 29 29"
				>
					<g fill="currentColor" clip-path="url(#a)">
						<path d="M28.83 12.136a2.552 2.552 0 0 0-.577-2.714L19.578.746a2.552 2.552 0 0 0-3.605 0L6.22 10.5H2.549A2.552 2.552 0 0 0 0 13.049V26.45a2.552 2.552 0 0 0 2.549 2.548H26.45A2.552 2.552 0 0 0 29 26.451V13.049c0-.322-.06-.63-.17-.913Zm-1.845-1.58a2.553 2.553 0 0 0-.534-.056h-1.84l1.158-1.16 1.216 1.216ZM24.568 8.14l-2.36 2.36h-2.404l3.562-3.562 1.202 1.202Zm-7.393-6.191a.847.847 0 0 1 1.201 0l3.789 3.788L17.4 10.5H8.623l8.552-8.552ZM27.3 26.45a.85.85 0 0 1-.85.85H2.55a.85.85 0 0 1-.85-.85V13.049a.85.85 0 0 1 .85-.85h23.9a.85.85 0 0 1 .85.85V26.45Z" />
						<path d="M3.342 23.03h3.96v1.698h-3.96V23.03Zm6.118 0h3.96v1.698H9.46V23.03Zm6.12 0h3.96v1.698h-3.96V23.03Zm6.119 0h3.96v1.698h-3.96V23.03ZM7.718 14.464H4.814c-.78 0-1.416.636-1.416 1.416v2.266c0 .78.636 1.416 1.416 1.416h2.904c.781 0 1.416-.635 1.416-1.416V15.88c0-.78-.635-1.416-1.416-1.416Zm-.283 3.399H5.098v-1.7h2.337v1.7Z" />
					</g>
				</symbol>
				<symbol
					xmlns="http://www.w3.org/2000/svg"
					id="cross"
					fill="none"
					viewBox="0 0 26 26"
				>
					<path
						fill="currentColor"
						d="m6.353 22.502 16.15-16.15a1.582 1.582 0 0 0 0-2.234 1.582 1.582 0 0 0-2.236 0l-16.15 16.15a1.582 1.582 0 0 0 0 2.234 1.582 1.582 0 0 0 2.236 0Z"
					/>
					<path
						fill="currentColor"
						d="M22.193 19.957 6.043 3.807a1.582 1.582 0 0 0-2.235 0 1.582 1.582 0 0 0 0 2.236l16.15 16.15a1.582 1.582 0 0 0 2.235 0 1.582 1.582 0 0 0 0-2.236Z"
					/>
				</symbol>
				<symbol
					xmlns="http://www.w3.org/2000/svg"
					id="discount"
					fill="none"
					viewBox="0 0 88 88"
				>
					<g fill="currentColor" clip-path="url(#a)">
						<path d="M82.15 45.14a2.578 2.578 0 0 1 0-2.28l3.281-6.714A7.64 7.64 0 0 0 82.135 26l-6.601-3.503a2.579 2.579 0 0 1-1.34-1.844l-1.291-7.36a7.64 7.64 0 0 0-8.63-6.27l-7.4 1.046a2.579 2.579 0 0 1-2.167-.704L49.334 2.17a7.639 7.639 0 0 0-10.666 0l-5.372 5.196a2.58 2.58 0 0 1-2.168.705l-7.4-1.047a7.639 7.639 0 0 0-8.629 6.27l-1.29 7.36a2.58 2.58 0 0 1-1.34 1.845l-6.602 3.503A7.64 7.64 0 0 0 2.57 36.146l3.281 6.714a2.579 2.579 0 0 1 0 2.28L2.57 51.854a7.64 7.64 0 0 0 3.297 10.145l6.601 3.502c.712.378 1.2 1.05 1.34 1.844l1.291 7.362a7.635 7.635 0 0 0 7.53 6.347 7.9 7.9 0 0 0 1.1-.078l7.4-1.046a2.578 2.578 0 0 1 2.167.704l5.372 5.196A7.646 7.646 0 0 0 44 88a7.648 7.648 0 0 0 5.333-2.17l5.371-5.196a2.58 2.58 0 0 1 2.168-.704l7.4 1.046a7.638 7.638 0 0 0 8.63-6.27l1.29-7.36a2.58 2.58 0 0 1 1.34-1.845L82.136 62a7.64 7.64 0 0 0 3.296-10.145L82.15 45.14Zm-2.394 12.375-6.601 3.503a7.622 7.622 0 0 0-3.96 5.45l-1.291 7.361a2.585 2.585 0 0 1-2.92 2.122l-7.4-1.047a7.62 7.62 0 0 0-6.407 2.082l-5.372 5.196a2.585 2.585 0 0 1-3.609 0l-5.37-5.196a7.615 7.615 0 0 0-6.409-2.082l-7.4 1.046a2.585 2.585 0 0 1-2.919-2.12l-1.291-7.362a7.621 7.621 0 0 0-3.96-5.45l-6.602-3.503a2.584 2.584 0 0 1-1.115-3.432l3.282-6.715a7.622 7.622 0 0 0 0-6.737L7.13 33.917a2.584 2.584 0 0 1 1.115-3.432l6.602-3.503a7.622 7.622 0 0 0 3.96-5.45l1.29-7.362a2.585 2.585 0 0 1 2.92-2.12l7.4 1.046a7.622 7.622 0 0 0 6.408-2.082l5.371-5.196a2.585 2.585 0 0 1 3.609 0l5.371 5.196a7.621 7.621 0 0 0 6.408 2.082l7.4-1.047a2.585 2.585 0 0 1 2.92 2.121l1.29 7.362a7.621 7.621 0 0 0 3.96 5.45l6.602 3.503a2.584 2.584 0 0 1 1.115 3.432L77.59 40.63a7.622 7.622 0 0 0 0 6.737l3.282 6.714a2.585 2.585 0 0 1-1.115 3.433Z" />
						<path d="M62.542 25.457a2.538 2.538 0 0 0-3.589 0L25.457 58.954a2.538 2.538 0 0 0 3.589 3.589l33.496-33.497a2.538 2.538 0 0 0 0-3.589ZM33.849 21.16c-5.13 0-9.305 4.174-9.305 9.305 0 5.131 4.174 9.305 9.305 9.305 5.13 0 9.305-4.174 9.305-9.305 0-5.13-4.174-9.305-9.305-9.305Zm0 13.535a4.234 4.234 0 0 1-4.23-4.23 4.234 4.234 0 0 1 4.23-4.23 4.234 4.234 0 0 1 4.23 4.23 4.235 4.235 0 0 1-4.23 4.23ZM54.15 48.23c-5.13 0-9.304 4.174-9.304 9.305 0 5.13 4.174 9.305 9.305 9.305 5.13 0 9.305-4.175 9.305-9.305 0-5.131-4.174-9.305-9.305-9.305Zm0 13.534a4.234 4.234 0 0 1-4.229-4.23 4.234 4.234 0 0 1 4.23-4.229 4.234 4.234 0 0 1 4.23 4.23 4.234 4.234 0 0 1-4.23 4.23Z" />
					</g>
				</symbol>
				<symbol
					xmlns="http://www.w3.org/2000/svg"
					id="dnd-icon"
					fill="none"
					viewBox="0 0 44 56"
				>
					<path
						fill="currentColor"
						fill-rule="evenodd"
						d="M.5 9A8.5 8.5 0 0 1 9 .5h19.541l.148.162 14.68 16 .131.143V47a8.5 8.5 0 0 1-8.5 8.5H9A8.5 8.5 0 0 1 .5 47V9ZM9 1.5A7.5 7.5 0 0 0 1.5 9v38A7.5 7.5 0 0 0 9 54.5h26a7.5 7.5 0 0 0 7.5-7.5V17.5H32.321a4.5 4.5 0 0 1-4.5-4.5V1.5H9Zm19.821.785L41.863 16.5H32.32a3.5 3.5 0 0 1-3.5-3.5V2.285Zm5.679 26.11a.5.5 0 0 0-.66-.473l-9 3.054a.5.5 0 0 0-.34.473v3.21l10-3.393v-2.87Zm1 14.158c-.028 1.564-1.286 2.823-2.833 2.823-1.565 0-2.834-1.287-2.834-2.876 0-1.588 1.269-2.876 2.834-2.876.699 0 1.339.257 1.833.683v-7.985l-10 3.393V45c0 1.588-1.268 2.876-2.833 2.876-1.565 0-2.834-1.288-2.834-2.876 0-1.588 1.269-2.876 2.834-2.876.699 0 1.339.257 1.833.683V31.45a1.5 1.5 0 0 1 1.018-1.42l9-3.054a1.5 1.5 0 0 1 1.982 1.42v14.157ZM23.5 45c0-1.05-.835-1.876-1.833-1.876-.999 0-1.834.826-1.834 1.876 0 1.05.835 1.876 1.834 1.876.998 0 1.833-.826 1.833-1.876Zm11-2.504c-.002-1.048-.836-1.872-1.833-1.872-.999 0-1.834.826-1.834 1.876 0 1.05.835 1.876 1.834 1.876.997 0 1.83-.824 1.833-1.872v-.008Z"
						clip-rule="evenodd"
					/>
				</symbol>
				<symbol
					xmlns="http://www.w3.org/2000/svg"
					id="donate-arrow"
					fill="none"
					viewBox="0 0 22 11"
				>
					<path
						fill="currentColor"
						d="M0 0h2.828L8 5.172 6.586 6.586 0 0Zm8.405 8.405 2.202 2.202L21.168.047 18.386 0l-7.779 7.779-.788-.788-1.414 1.414Z"
					/>
				</symbol>
				<symbol
					xmlns="http://www.w3.org/2000/svg"
					id="download"
					fill="none"
					viewBox="0 0 46 46"
				>
					<g fill="currentColor" clip-path="url(#a)">
						<path d="m36.275 20.574-2.02-2.3a1.536 1.536 0 0 0-2.163-.14l-6.025 5.28V1.534C26.067.686 25.379 0 24.533 0h-3.067c-.846 0-1.533.687-1.533 1.533v21.881l-6.026-5.28a1.536 1.536 0 0 0-2.162.14l-2.02 2.297a1.535 1.535 0 0 0 .14 2.168l12.126 10.614c.58.506 1.441.506 2.02 0L36.135 22.74a1.53 1.53 0 0 0 .141-2.165Zm3.591 19.293H6.133c-.846 0-1.533.687-1.533 1.533v3.067c0 .846.687 1.533 1.533 1.533h33.733c.847 0 1.534-.687 1.534-1.533V41.4c0-.846-.687-1.533-1.534-1.533Z" />
					</g>
				</symbol>
				<symbol
					xmlns="http://www.w3.org/2000/svg"
					id="dp"
					fill="none"
					viewBox="0 0 44 18"
				>
					<g fill="currentColor" clip-path="url(#a)">
						<path d="M7.23 5.368c2.168.095 9.742-1.263 9.836 3.727 0 1.263 0 3.82-5.06 3.82H8.204v-3.82l-2.546 1.263v5.115h7.291a6.792 6.792 0 0 0 4.872-1.926 6.065 6.065 0 0 0 1.791-4.452 6.089 6.089 0 0 0-1.791-4.453 6.816 6.816 0 0 0-4.872-1.926H5.03l2.2 2.652Z" />
						<path d="M44 12.505V0H5.469c-1.45 0-2.842.579-3.867 1.61A5.508 5.508 0 0 0 0 5.494V18h38.531a5.445 5.445 0 0 0 3.867-1.61A5.495 5.495 0 0 0 44 12.506Zm-5.343-4.673a3.55 3.55 0 0 1-.408 1.673 4.003 4.003 0 0 1-1.49 1.582 3.976 3.976 0 0 1-2.093.566h-6.16l2.545-2.558h2.798c1.697 0 2.702-.695 2.325-2.716-.345-1.326-.66-1.01-3.865-1.105h-5.06v8.937l-2.546 1.263V4.2a.475.475 0 0 1 .126-.347l1.037-1.042a.345.345 0 0 1 .22-.095h8.517c.963 0 1.895.343 2.63.967a4.11 4.11 0 0 1 1.393 2.443c.018.136.028.274.031.41v1.296ZM22 16.737H1.257V5.495c0-1.123.444-2.199 1.234-2.992a4.201 4.201 0 0 1 2.978-1.24H22v15.474Z" />
					</g>
				</symbol>
				<symbol
					xmlns="http://www.w3.org/2000/svg"
					id="eye-close"
					fill="none"
					viewBox="0 0 28 24"
				>
					<path
						fill="currentColor"
						d="M14.089 20.766a15.8 15.8 0 0 0 5.093-.844l-1.6-1.603c-1.096.325-2.255.52-3.493.52-6.426 0-11.528-5.366-11.528-6.766 0-.674 1.713-2.857 4.463-4.546l-1.51-1.508C2.227 8.103.286 10.869.286 12.073c0 2.055 5.679 8.693 13.803 8.693Zm0-17.382c-1.75 0-3.344.3-4.819.788l1.608 1.601a11.433 11.433 0 0 1 3.211-.462c6.418 0 11.522 5.588 11.522 6.762 0 .787-1.624 2.839-4.213 4.463l1.49 1.496c3.147-2.075 4.998-4.779 4.998-5.959 0-2.059-5.562-8.69-13.797-8.69Zm0 14.104c.779 0 1.513-.188 2.172-.495L9.148 9.88a5.02 5.02 0 0 0-.495 2.195c.008 2.946 2.415 5.413 5.436 5.413Zm5.014-3.474a4.78 4.78 0 0 0 .41-1.943 5.389 5.389 0 0 0-5.422-5.41 5.06 5.06 0 0 0-1.95.392l6.962 6.961Zm2.902 6.922a.772.772 0 0 0 1.131 0c.335-.337.31-.81 0-1.13l-17.01-17a.812.812 0 0 0-1.14 0 .819.819 0 0 0 0 1.13l17.019 17Z"
					/>
				</symbol>
				<symbol
					xmlns="http://www.w3.org/2000/svg"
					id="eye"
					fill="none"
					viewBox="0 0 28 24"
				>
					<path
						fill="currentColor"
						d="M14.089 20.829c8.235 0 13.797-6.639 13.797-8.694 0-2.059-5.57-8.69-13.797-8.69-8.116 0-13.803 6.631-13.803 8.69 0 2.055 5.679 8.694 13.803 8.694Zm0-1.927c-6.426 0-11.528-5.367-11.528-6.767 0-1.173 5.102-6.762 11.528-6.762 6.401 0 11.522 5.589 11.522 6.762 0 1.4-5.12 6.767-11.522 6.767Zm.002-1.351c3.01 0 5.421-2.468 5.421-5.416a5.385 5.385 0 0 0-5.421-5.41c-3.023 0-5.447 2.388-5.438 5.41.016 2.948 2.415 5.416 5.438 5.416Zm-.004-3.661a1.764 1.764 0 0 1-1.764-1.755c0-.967.788-1.75 1.764-1.75.973 0 1.763.783 1.763 1.75 0 .96-.79 1.755-1.763 1.755Z"
					/>
				</symbol>
				<symbol
					xmlns="http://www.w3.org/2000/svg"
					id="female"
					fill="none"
					viewBox="0 0 29 29"
				>
					<g clip-path="url(#a)">
						<path
							fill="currentColor"
							d="M21.312 16.436c3.756-3.755 3.756-9.865 0-13.62-3.756-3.755-9.868-3.755-13.624 0-3.756 3.755-3.756 9.865 0 13.62a9.588 9.588 0 0 0 5.679 2.75v3.223H11.1a1.133 1.133 0 1 0 0 2.266h2.267v3.192a1.133 1.133 0 0 0 2.266 0v-3.192H17.9a1.133 1.133 0 1 0 0-2.266h-2.267v-3.224a9.588 9.588 0 0 0 5.679-2.75ZM9.29 14.833c-2.872-2.871-2.872-7.543 0-10.415 2.872-2.87 7.546-2.871 10.418 0 2.872 2.872 2.872 7.544 0 10.415-2.872 2.872-7.546 2.872-10.418 0Z"
						/>
					</g>
				</symbol>
				<symbol
					xmlns="http://www.w3.org/2000/svg"
					id="footer-logo"
					fill="none"
					viewBox="0 0 184 61"
				>
					<g fill="currentColor" clip-path="url(#a)" mask="url(#b)">
						<path d="M28.749 33.843c10.78-12.183 23.582-16.317 38.25-18.178 16.595-2.131 30.152 2.529 30.152 2.529-52.917-8.286-71.687 23.728-71.687 23.728s10.025-13.391 37.078-17.51c29.32-4.469 45.221 10.957 45.113 10.814-41.674-17.525-64.917 2.227-64.778 2.545l6.925 23.028-18.986-14.281-19.218 14.281 7.157-23.267L0 23.267h23.459L30.816 0l6.709 21.422S31.479 26.94 26.59 36.164l2.159-2.321Z" />
						<path d="M67.863 59.622c-3.212 0-5.903-1.007-8.076-3.022-2.173-2.014-3.26-4.606-3.262-7.776v-.06c0-3.112 1.058-5.7 3.172-7.762 2.116-2.062 4.769-3.093 7.96-3.093 3.327 0 6.144 1.051 8.45 3.154l-3.772 4.7c-1.422-1.208-2.912-1.812-4.472-1.812-1.327 0-2.413.46-3.26 1.382-.845.921-1.269 2.096-1.269 3.524v.059c0 1.484.448 2.684 1.342 3.599.895.915 2.053 1.37 3.475 1.368 1 0 1.77-.16 2.314-.477v-2.08h-3.47v-4.462h9.776V56.5c-2.443 2.083-5.412 3.123-8.908 3.122Zm15.739-.445V44.248H77.66v-5.884h18.631v5.884h-5.94v14.929h-6.75Zm10.162 0 8.509-20.968h6.691l8.509 20.968h-7.326l-1.067-2.796h-7.067l-1.038 2.796h-7.21Zm9.952-7.733h3.69l-1.85-5.055-1.84 5.055Zm22.12 8.178c-3.459 0-6.39-1.14-8.792-3.42l3.72-4.453c1.827 1.508 3.49 2.261 4.99 2.26.788 0 1.41-.182 1.86-.55a1.74 1.74 0 0 0 .509-.636c.118-.251.176-.528.17-.806v-.06a1.81 1.81 0 0 0-.155-.808 1.761 1.761 0 0 0-.495-.648c-.432-.357-1.003-.536-1.715-.536-1.019 0-2.047.436-3.085 1.309l-4.067-2.082.577-10.825h14.564v5.5h-9.551l-.145 2.704a7.205 7.205 0 0 1 4.381-1.116 7.261 7.261 0 0 1 4.193 1.722c1.336 1.16 2.005 2.769 2.005 4.827v.06c0 2.358-.832 4.207-2.494 5.546-1.663 1.339-3.82 2.01-6.47 2.012Zm22.152-.446V38.36h8.682c2.48 0 4.392.694 5.739 2.082 1.039 1.07 1.559 2.438 1.558 4.104v.06c0 1.664-.5 3.017-1.499 4.06-1 1.042-2.326 1.71-3.981 2.006l6.202 8.505h-2.798l-5.861-8.088h-5.768v8.088h-2.274Zm2.28-10.194h6.2c1.542 0 2.792-.386 3.749-1.159.958-.773 1.438-1.814 1.442-3.123v-.06c0-1.29-.452-2.297-1.355-3.02-.904-.725-2.173-1.087-3.807-1.087h-6.229v8.45Zm18.572 10.194V38.36h7.558c2.287 0 4.118.59 5.494 1.77 1.375 1.18 2.063 2.79 2.062 4.831v.06c0 2.163-.754 3.838-2.264 5.026-1.51 1.189-3.398 1.784-5.667 1.785h-4.903v7.345h-2.28Zm2.28-9.486h4.989c1.672 0 3.013-.421 4.023-1.264a4.048 4.048 0 0 0 1.141-1.472c.262-.576.39-1.208.373-1.844v-.06c0-1.445-.485-2.559-1.456-3.34-.97-.782-2.293-1.173-3.966-1.175h-5.104v9.155Z" />
					</g>
				</symbol>
				<symbol
					xmlns="http://www.w3.org/2000/svg"
					id="gamepad"
					fill="none"
					viewBox="0 0 54 54"
				>
					<path
						fill="currentColor"
						d="M49.172 15.441c-7.132-11.718-17.877-3.566-17.877-3.566-.697.527-1.982.96-2.855.962l-2.878.002c-.873 0-2.158-.432-2.853-.959 0 0-10.746-8.154-17.88 3.564C-2.3 27.158.573 39.915.573 39.915c.504 3.124 2.163 5.209 5.295 4.947 3.123-.261 9.9-8.413 9.9-8.413.56-.671 1.734-1.22 2.605-1.22l17.253-.003c.872 0 2.044.549 2.603 1.22 0 0 6.78 8.152 9.907 8.413 3.128.261 4.791-1.825 5.291-4.947 0 0 2.878-12.755-4.254-24.471Zm-28.655 9.538h-3.7v3.566s-.784.598-1.996.583c-1.21-.018-1.758-.653-1.758-.653V24.98H9.569s-.436-.447-.553-1.624c-.115-1.177.482-2.129.482-2.129h3.7v-3.7s.762-.407 1.857-.376a4.892 4.892 0 0 1 1.898.446l-.015 3.629h3.494s.61.784.66 1.73c.05.948-.575 2.023-.575 2.023Zm16.97 4.064a2.924 2.924 0 0 1-2.927-2.928 2.922 2.922 0 0 1 2.926-2.928 2.93 2.93 0 0 1 0 5.856Zm0-8.057a2.923 2.923 0 0 1-2.927-2.927 2.922 2.922 0 0 1 2.926-2.928 2.93 2.93 0 0 1 2.93 2.928 2.93 2.93 0 0 1-2.93 2.927Zm7.292 4.325a2.923 2.923 0 0 1-2.927-2.928 2.923 2.923 0 0 1 2.927-2.928 2.93 2.93 0 0 1 2.929 2.928 2.93 2.93 0 0 1-2.93 2.928Z"
					/>
				</symbol>
				<symbol
					xmlns="http://www.w3.org/2000/svg"
					id="handshake"
					fill="none"
					viewBox="0 0 42 42"
				>
					<g fill="currentColor" clip-path="url(#a)">
						<path d="M33.163 25.873c-.825-1.718-3.773-4.103-6.622-6.408-1.59-1.285-3.091-2.499-4.048-3.456a.875.875 0 0 0-.915-.205c-.59.213-.954.378-1.241.506-.438.196-.585.262-1.174.322a.875.875 0 0 0-.64.383c-1.238 1.85-2.52 1.692-3.375 1.405-.273-.09-.322-.208-.348-.32-.184-.768.738-2.557 1.933-3.752 2.844-2.846 4.31-3.558 7.408-2.174a102.257 102.257 0 0 0 7.07 2.814.877.877 0 0 0 .576-1.654 99.756 99.756 0 0 1-6.93-2.76c-4.013-1.793-6.214-.612-9.359 2.535-1.197 1.197-2.823 3.619-2.403 5.395.18.756.712 1.316 1.503 1.577 1.983.654 3.793.028 5.14-1.76.557-.086.86-.212 1.314-.417.165-.073.357-.16.613-.262 1.001.94 2.352 2.033 3.775 3.183 2.572 2.08 5.49 4.44 6.146 5.805.324.673-.025 1.113-.261 1.314-.347.297-.82.392-1.078.211a.876.876 0 0 0-1.367.814c.06.557-.45.875-.67.985-.56.284-1.145.235-1.363.032a.875.875 0 0 0-1.468.558c-.053.574-.478 1.125-1.033 1.34-.268.102-.656.163-1.005-.155a.874.874 0 0 0-1.414.348c-.033.088-.108.298-.927.298-.583 0-1.631-.394-2.144-.734-.614-.404-4.466-3.277-7.793-6.063-.467-.394-1.275-1.238-1.99-1.983-.633-.662-1.212-1.262-1.51-1.514a.876.876 0 0 0-1.13 1.337c.271.23.796.784 1.375 1.388.781.815 1.588 1.659 2.13 2.114 3.259 2.728 7.175 5.673 7.956 6.186.644.424 2.032 1.019 3.106 1.019.863 0 1.526-.198 1.986-.585.616.24 1.316.242 1.99-.02a3.447 3.447 0 0 0 1.822-1.683c.69.147 1.479.044 2.196-.316.702-.354 1.21-.895 1.461-1.526.697.036 1.414-.21 2.007-.72 1.005-.859 1.281-2.196.7-3.401Z" />
						<path d="M17.5 11.375H9.625a.875.875 0 0 0 0 1.75H17.5a.875.875 0 0 0 0-1.75Zm18.226 12.636a.873.873 0 0 0-1.214-.238l-2.559 1.719a.876.876 0 0 0 .977 1.453l2.558-1.719a.876.876 0 0 0 .238-1.215Zm-5.432 4.176c-.626-.494-3.428-3.362-5.16-5.168a.874.874 0 1 0-1.264 1.211c.45.47 4.417 4.605 5.34 5.333.158.126.35.187.54.187a.874.874 0 0 0 .544-1.563Zm-3.496 1.755c-1.048-.838-3.682-3.636-4.277-4.284a.876.876 0 0 0-1.29 1.185c.031.033 3.174 3.427 4.473 4.466a.88.88 0 0 0 1.23-.137.877.877 0 0 0-.136-1.23Zm-3.483 1.762c-1.248-1.051-3.8-3.769-4.3-4.303a.875.875 0 1 0-1.279 1.195c.718.769 3.16 3.359 4.45 4.447a.873.873 0 0 0 1.234-.105.876.876 0 0 0-.105-1.234Z" />
						<path d="M10.227 9.864c-1.5-1.42-7.497-1.88-9.3-1.988A.875.875 0 0 0 0 8.75V24.5a.877.877 0 0 0 .876.876h5.25a.874.874 0 0 0 .831-.604c.128-.392 3.143-9.646 3.54-14.196a.87.87 0 0 0-.269-.71Zm-4.74 13.76H1.75V9.689c2.812.222 5.847.705 6.95 1.24-.464 3.833-2.563 10.642-3.214 12.697ZM41.125 9.625c-6.87 0-10.682 1.758-10.841 1.832a.87.87 0 0 0-.467.544.882.882 0 0 0 .096.71c1.081 1.742 4.467 11.412 5.118 13.772.105.38.45.642.844.642h5.25A.875.875 0 0 0 42 26.25V10.5a.874.874 0 0 0-.875-.875Zm-.875 15.75h-3.72c-.83-2.702-3.28-9.748-4.647-12.66 1.335-.453 4.204-1.232 8.367-1.33v13.99Z" />
					</g>
				</symbol>
				<symbol
					xmlns="http://www.w3.org/2000/svg"
					id="headset"
					fill="none"
					viewBox="0 0 29 29"
				>
					<path
						fill="currentColor"
						fill-rule="evenodd"
						d="M14.873 2.515a11.412 11.412 0 0 0-11.339 8.218 1.852 1.852 0 0 0-.735.068C1.721 11.107.91 11.99.545 12.768c-.472 1.014-.672 2.355-.462 3.74.21 1.38.792 2.517 1.522 3.224.731.706 1.557.936 2.377.764 1.222-.261 1.827-.456 1.656-1.594l-.828-5.517a9.7 9.7 0 0 1 4.298-7.524 9.694 9.694 0 0 1 11.297.37 9.699 9.699 0 0 1 3.783 7.168l-.579 3.858a9.695 9.695 0 0 1-8.198 6.33h-2.467c-.636 0-1.149.513-1.149 1.149v.606c0 .636.513 1.149 1.15 1.149h3.11c.636 0 1.146-.513 1.146-1.15v-.316a11.452 11.452 0 0 0 6.82-4.793l.997.264c.811.21 1.647-.058 2.378-.764.73-.707 1.312-1.844 1.521-3.224.211-1.384.006-2.723-.462-3.74-.469-1.016-1.168-1.661-1.975-1.893a4.227 4.227 0 0 0-1.02-.142 11.404 11.404 0 0 0-10.587-8.218Z"
						clip-rule="evenodd"
					/>
					<path
						fill="currentColor"
						fill-rule="evenodd"
						d="M18.514 12.44a1.49 1.49 0 0 1 1.49 1.49 1.492 1.492 0 0 1-2.983 0c0-.824.67-1.49 1.493-1.49Zm-4.014 0a1.49 1.49 0 1 1 0 2.981 1.49 1.49 0 1 1 0-2.981Zm-4.013 0a1.49 1.49 0 1 1 0 2.981 1.49 1.49 0 0 1 0-2.981ZM14.5 6.036c-4.372 0-7.895 3.407-7.895 7.895 0 2.155.815 4.06 2.143 5.457L8.276 21.5c-.155.695.327 1.162.952.814l2.062-1.15c.98.426 2.064.66 3.21.66 4.373 0 7.894-3.404 7.894-7.894 0-4.487-3.521-7.894-7.894-7.894Z"
						clip-rule="evenodd"
					/>
				</symbol>
				<symbol
					xmlns="http://www.w3.org/2000/svg"
					id="house"
					fill="none"
					viewBox="0 0 29 29"
				>
					<g clip-path="url(#a)">
						<path
							fill="currentColor"
							d="m28.275 12.557-.002-.002L16.443.725a2.651 2.651 0 0 0-1.888-.782c-.713 0-1.383.278-1.888.782L.844 12.55l-.012.012a2.673 2.673 0 0 0 .005 3.77 2.655 2.655 0 0 0 1.854.782h.471v8.706a3.128 3.128 0 0 0 3.125 3.124h4.628c.47 0 .85-.38.85-.85V21.27c0-.786.64-1.426 1.425-1.426h2.73c.786 0 1.426.64 1.426 1.426v6.825c0 .469.38.85.85.85h4.627a3.128 3.128 0 0 0 3.125-3.125v-8.706h.438c.712 0 1.383-.277 1.887-.782a2.674 2.674 0 0 0 .002-3.774Zm-1.203 2.573a.964.964 0 0 1-.686.284h-1.287a.85.85 0 0 0-.85.85v9.555c0 .786-.64 1.425-1.425 1.425h-3.779V21.27a3.128 3.128 0 0 0-3.125-3.125h-2.73a3.129 3.129 0 0 0-3.125 3.125v5.975H6.287c-.786 0-1.426-.64-1.426-1.425v-9.555a.85.85 0 0 0-.85-.85H2.748a.964.964 0 0 1-.708-.285.972.972 0 0 1 0-1.372v-.001l11.83-11.83a.963.963 0 0 1 .686-.283c.26 0 .503.1.686.284l11.827 11.826.006.006a.973.973 0 0 1-.002 1.37Z"
						/>
					</g>
				</symbol>
				<symbol
					xmlns="http://www.w3.org/2000/svg"
					id="key"
					fill="none"
					viewBox="0 0 29 29"
				>
					<g fill="currentColor" clip-path="url(#a)">
						<path d="M26.267 2.733c-3.645-3.644-9.575-3.644-13.22 0a9.346 9.346 0 0 0-2.275 9.487L.249 22.743a.85.85 0 0 0-.249.6v4.807c0 .47.38.85.85.85h4.807a.85.85 0 0 0 .6-.249L7.46 27.55a.85.85 0 0 0 .244-.699l-.15-1.29 1.789-.169a.85.85 0 0 0 .766-.766l.168-1.79 1.291.15a.85.85 0 0 0 .948-.843V20.56h1.554a.85.85 0 0 0 .597-.245l2.111-2.087a9.346 9.346 0 0 0 9.49-2.275c3.644-3.644 3.644-9.574 0-13.219ZM25.065 14.75a7.649 7.649 0 0 1-8.196 1.706.85.85 0 0 0-.907.187L13.72 18.86h-2.055a.85.85 0 0 0-.85.85v1.477l-1.205-.14a.85.85 0 0 0-.944.765l-.184 1.953-1.954.184a.85.85 0 0 0-.764.944l.203 1.745-.662.663H1.699v-3.605l10.654-10.654a.85.85 0 0 0 .19-.91 7.649 7.649 0 0 1 1.707-8.197c2.981-2.982 7.833-2.982 10.815 0 2.982 2.982 2.982 7.834 0 10.815Z" />
						<path d="M23.863 5.137a2.552 2.552 0 0 0-3.605 0 2.552 2.552 0 0 0 0 3.605 2.552 2.552 0 0 0 3.605 0 2.552 2.552 0 0 0 0-3.605ZM22.662 7.54a.85.85 0 1 1-1.202-1.204.85.85 0 0 1 1.201 1.204Z" />
					</g>
				</symbol>
				<symbol
					xmlns="http://www.w3.org/2000/svg"
					id="launcher-download-arrow"
					fill="none"
					viewBox="0 0 65 85"
				>
					<path
						fill="currentColor"
						fill-rule="evenodd"
						d="M36.983 57.793V9.958h-9.77v55.82l5.862 5.863 31.263-33.218h-8.793l-18.563 19.37ZM.834 39.35l20.394 20.395.071-9.597L10.523 39.37l-9.688-.02Z"
						clip-rule="evenodd"
					/>
					<path
						fill="currentColor"
						d="M10.957 77.503h44.124v6.839H10.957z"
					/>
				</symbol>
				<symbol
					xmlns="http://www.w3.org/2000/svg"
					id="logo-servers"
					fill="none"
					viewBox="0 0 294 51"
				>
					<path
						fill="currentColor"
						d="M26.099 50.782c-7.392 0-13.588-2.319-18.59-6.956C2.508 39.188.005 33.22 0 25.924v-.136C0 18.623 2.435 12.666 7.303 7.92 12.173 3.172 18.28.8 25.627.8c7.657 0 14.141 2.42 19.452 7.26l-8.684 10.82c-3.273-2.782-6.705-4.173-10.296-4.173-3.053 0-5.554 1.06-7.502 3.181-1.948 2.12-2.922 4.825-2.922 8.113v.135c0 3.417 1.03 6.179 3.089 8.285 2.06 2.106 4.725 3.156 7.999 3.148 2.3 0 4.076-.366 5.326-1.098v-4.788H24.1v-10.27h22.506v22.182c-5.624 4.793-12.46 7.19-20.507 7.187Zm36.231-1.025V15.39H48.656V1.846h42.888V15.39H77.867v34.365H62.331Zm23.394 0L105.312 1.49h15.401l19.588 48.266h-16.864l-2.457-6.436h-16.268l-2.39 6.436H85.724Zm22.907-17.8h8.497l-4.261-11.638-4.236 11.638Zm50.92 18.825c-7.963 0-14.708-2.624-20.238-7.871l8.564-10.251c4.204 3.47 8.032 5.205 11.486 5.202 1.814 0 3.245-.42 4.281-1.267.498-.384.9-.887 1.172-1.464a4.118 4.118 0 0 0 .39-1.856v-.136a4.159 4.159 0 0 0-.356-1.861 4.05 4.05 0 0 0-1.138-1.492c-.994-.822-2.31-1.234-3.948-1.234-2.346 0-4.713 1.005-7.101 3.013l-9.362-4.792 1.327-24.92h33.527v12.663h-21.988l-.334 6.224a16.593 16.593 0 0 1 10.086-2.57 16.715 16.715 0 0 1 9.651 3.965c3.077 2.67 4.616 6.373 4.616 11.11v.14c0 5.428-1.914 9.683-5.741 12.766-3.828 3.082-8.792 4.626-14.894 4.63Zm50.994-1.025V1.835h19.986c5.709 0 10.111 1.598 13.211 4.792 2.393 2.463 3.589 5.612 3.585 9.449v.135c0 3.832-1.15 6.948-3.451 9.347-2.3 2.4-5.354 3.939-9.163 4.62l14.276 19.579h-6.44l-13.492-18.62h-13.278v18.62h-5.234Zm5.248-23.467h14.272c3.551 0 6.427-.89 8.631-2.669 2.205-1.78 3.309-4.175 3.32-7.19v-.135c0-2.97-1.04-5.289-3.121-6.956-2.08-1.667-5.002-2.5-8.762-2.5h-14.34v19.45Zm42.754 23.467V1.835h17.397c5.265 0 9.48 1.358 12.647 4.075 3.166 2.716 4.75 6.423 4.746 11.121v.14c0 4.976-1.736 8.832-5.212 11.568-3.475 2.736-7.821 4.105-13.044 4.108h-11.286v16.91h-5.248Zm5.248-21.838h11.485c3.849 0 6.934-.97 9.26-2.91a9.314 9.314 0 0 0 2.627-3.388 9.644 9.644 0 0 0 .859-4.245v-.14c0-3.326-1.118-5.889-3.352-7.688-2.233-1.798-5.279-2.7-9.131-2.705h-11.748V27.92Z"
					/>
				</symbol>
				<symbol
					xmlns="http://www.w3.org/2000/svg"
					id="logo"
					fill="none"
					viewBox="0 0 121 40"
				>
					<g fill="currentColor" clip-path="url(#a)" mask="url(#b)">
						<path d="M18.906 22.224c7.09-8 15.508-10.715 25.153-11.937 10.913-1.4 19.829 1.66 19.829 1.66-34.8-5.44-47.143 15.583-47.143 15.583s6.593-8.794 24.383-11.499c19.28-2.934 29.738 7.196 29.667 7.102-27.405-11.509-42.69 1.462-42.599 1.671l4.554 15.123-12.485-9.379-12.638 9.379 4.706-15.28L0 15.28h15.427L20.265 0l4.412 14.068s-3.976 3.624-7.191 9.681l1.42-1.524Z" />
						<path d="M44.628 39.157c-2.112 0-3.882-.661-5.311-1.984-1.429-1.323-2.144-3.025-2.145-5.107v-.039c0-2.044.695-3.743 2.086-5.097 1.391-1.354 3.136-2.032 5.235-2.032 2.187 0 4.04.69 5.557 2.072l-2.481 3.087c-.935-.794-1.916-1.19-2.941-1.19-.873 0-1.587.302-2.144.907-.556.605-.834 1.376-.834 2.314v.039c0 .974.294 1.762.882 2.363.589.6 1.35.9 2.285.898.657 0 1.165-.104 1.522-.313v-1.366h-2.282v-2.93h6.429v6.328c-1.607 1.368-3.56 2.051-5.858 2.05Zm10.349-.294V29.06H51.07v-3.865h12.252v3.864h-3.906v9.804h-4.439Zm6.683 0 5.596-13.77h4.4l5.595 13.77h-4.818l-.701-1.836h-4.648l-.682 1.836H61.66Zm6.544-5.078h2.427l-1.217-3.32-1.21 3.32Zm14.546 5.369c-2.275 0-4.202-.749-5.781-2.246l2.446-2.924c1.201.99 2.295 1.485 3.281 1.484.519 0 .927-.12 1.223-.362a1.14 1.14 0 0 0 .335-.417 1.18 1.18 0 0 0 .112-.53v-.038a1.186 1.186 0 0 0-.102-.532 1.155 1.155 0 0 0-.325-.425c-.284-.235-.66-.352-1.128-.352-.67 0-1.346.287-2.029.86l-2.674-1.367.38-7.11h9.577v3.613h-6.282l-.095 1.775a4.745 4.745 0 0 1 2.881-.733 4.779 4.779 0 0 1 2.757 1.131c.88.762 1.319 1.819 1.319 3.17v.04c0 1.548-.547 2.762-1.64 3.641-1.094.88-2.512 1.32-4.255 1.322Zm14.566-.296v-13.67h5.71c1.631 0 2.888.455 3.774 1.367.683.702 1.025 1.6 1.024 2.695v.039c0 1.093-.329 1.982-.986 2.666-.657.685-1.529 1.124-2.618 1.318l4.079 5.585h-1.84l-3.854-5.311h-3.794v5.312h-1.495Zm1.5-6.694h4.077c1.014 0 1.836-.254 2.465-.761.63-.508.946-1.192.949-2.051v-.04c0-.847-.297-1.508-.892-1.984-.594-.475-1.429-.713-2.503-.713h-4.097v5.549Zm12.215 6.694v-13.67h4.97c1.504 0 2.708.387 3.613 1.162.905.775 1.357 1.832 1.356 3.173v.04c0 1.42-.496 2.52-1.489 3.3-.993.78-2.234 1.17-3.726 1.172h-3.225v4.824h-1.499Zm1.499-6.23h3.281c1.1 0 1.981-.276 2.646-.83.32-.257.577-.588.75-.966a2.74 2.74 0 0 0 .246-1.211v-.04c0-.949-.32-1.68-.958-2.193-.638-.513-1.508-.77-2.609-.772h-3.356v6.013Z" />
					</g>
					<defs>
						<linearGradient
							id="c"
							x1="23.505"
							x2="42.962"
							y1="-1.627"
							y2="37.112"
							gradientUnits="userSpaceOnUse"
						>
							<stop stop-color="#FC761F" />
							<stop offset=".15" stop-color="#FC7C20" />
							<stop offset=".35" stop-color="#FC8D24" />
							<stop offset=".57" stop-color="#FCA929" />
							<stop offset=".82" stop-color="#FCCF31" />
							<stop offset="1" stop-color="#FCF037" />
						</linearGradient>
					</defs>
				</symbol>
				<symbol
					xmlns="http://www.w3.org/2000/svg"
					id="loupe"
					fill="none"
					viewBox="0 0 20 20"
				>
					<g clip-path="url(#a)">
						<path
							fill="currentColor"
							d="m19.361 18.217-4.76-4.95a8.05 8.05 0 0 0 1.895-5.192C16.496 3.623 12.873 0 8.42 0 3.968 0 .346 3.623.346 8.075c0 4.453 3.622 8.075 8.075 8.075a7.99 7.99 0 0 0 4.626-1.461l4.796 4.988c.2.208.47.323.76.323a1.054 1.054 0 0 0 .76-1.783ZM8.421 2.107a5.975 5.975 0 0 1 5.968 5.968 5.975 5.975 0 0 1-5.968 5.969 5.975 5.975 0 0 1-5.969-5.969 5.975 5.975 0 0 1 5.969-5.968Z"
						/>
					</g>
				</symbol>
				<symbol
					xmlns="http://www.w3.org/2000/svg"
					id="male"
					fill="none"
					viewBox="0 0 29 29"
				>
					<g clip-path="url(#a)">
						<path
							fill="currentColor"
							d="M28.984 1.053a1.196 1.196 0 0 0-.074-.299l-.002-.009V.744c-.043-.1-.1-.19-.165-.273-.016-.02-.031-.04-.048-.058a1.236 1.236 0 0 0-.231-.208L28.456.2a1.191 1.191 0 0 0-.347-.153A1.205 1.205 0 0 0 27.792 0h-8.459a1.209 1.209 0 0 0 0 2.417h5.541l-7.212 7.212a10.813 10.813 0 0 0-6.787-2.379C4.879 7.25 0 12.129 0 18.125S4.879 29 10.875 29 21.75 24.121 21.75 18.125c0-2.495-.84-4.862-2.38-6.787l7.213-7.213v5.542a1.209 1.209 0 0 0 2.417 0V1.208c0-.025-.006-.05-.007-.074a1.207 1.207 0 0 0-.009-.081Zm-18.109 25.53c-4.664 0-8.458-3.794-8.458-8.458s3.794-8.458 8.458-8.458c2.258 0 4.384.879 5.983 2.472a8.428 8.428 0 0 1 2.475 5.986c0 4.664-3.794 8.458-8.458 8.458Z"
						/>
					</g>
				</symbol>
				<symbol
					xmlns="http://www.w3.org/2000/svg"
					id="menu-account"
					fill="none"
					viewBox="0 0 19 20"
				>
					<path
						fill="currentColor"
						d="M2.993 19.093h12.532c1.729 0 2.564-.544 2.564-1.723 0-2.749-3.439-6.44-8.827-6.44-5.395 0-8.833 3.691-8.833 6.44 0 1.18.835 1.723 2.564 1.723Zm-.328-1.735c-.236 0-.332-.072-.332-.26 0-1.539 2.488-4.432 6.929-4.432 4.432 0 6.922 2.893 6.922 4.432 0 .188-.088.26-.325.26H2.665Zm6.597-7.6c2.428 0 4.395-2.145 4.395-4.773 0-2.593-1.965-4.652-4.395-4.652-2.411 0-4.397 2.092-4.394 4.67.01 2.618 1.967 4.756 4.394 4.756Zm0-1.735C7.873 8.023 6.69 6.714 6.688 5c-.002-1.667 1.174-2.931 2.574-2.931 1.412 0 2.576 1.248 2.576 2.916 0 1.713-1.175 3.038-2.576 3.038Z"
					/>
				</symbol>
				<symbol
					xmlns="http://www.w3.org/2000/svg"
					id="menu-boombox"
					fill="none"
					viewBox="0 0 24 25"
				>
					<path
						fill="currentColor"
						d="M2.763 17.327H6.85v-1.74H2.903c-.766 0-1.163-.394-1.163-1.14V3.323c0-.744.397-1.154 1.163-1.154H9.81c.352 0 .646.135.81.399l.02.081a5.37 5.37 0 0 1 .922-.075h1.075l-.025-.165C12.344 1.18 11.504.429 9.96.429H2.763C.955.429 0 1.392 0 3.218v11.33c0 1.82.947 2.78 2.763 2.78ZM4.65 5.095c0 1.076.857 1.954 1.944 1.963.136 0 .203-.009.281-.025.005-.12.013-.226.02-.33.018-.282.05-.574.097-.784-.051.038-.196.08-.382.08a.9.9 0 0 1-.91-.904c0-.505.399-.922.91-.922.334 0 .68.23.78.434a3.56 3.56 0 0 1 .633-.865c-.297-.36-.83-.61-1.413-.62a1.96 1.96 0 0 0-1.96 1.973Zm-1.465 6.088a3.391 3.391 0 0 0 3.323 3.412 3.8 3.8 0 0 0 .342 0v-2.077a3.034 3.034 0 0 1-.31.013A1.327 1.327 0 0 1 5.246 11.2c0-.737.568-1.32 1.322-1.344.092-.004.21.01.283.024V8.278c0-.152.001-.326.005-.49-.07 0-.177-.015-.323-.014a3.406 3.406 0 0 0-3.347 3.41Zm5.11-4.249v14.263c0 1.896.978 2.899 2.874 2.899h9.356c1.896 0 2.882-1.003 2.882-2.9V6.935c0-1.902-.986-2.907-2.882-2.907H11.17c-1.896 0-2.874 1.005-2.874 2.907Zm1.91.097c0-.724.355-1.094 1.102-1.094h9.08c.74 0 1.108.37 1.108 1.094v14.063c0 .721-.367 1.09-1.108 1.09h-9.08c-.739 0-1.102-.369-1.102-1.09V7.03Zm5.642 13.781a3.856 3.856 0 0 0 3.872-3.87c0-2.151-1.726-3.855-3.872-3.863-2.138-.02-3.863 1.72-3.863 3.863a3.859 3.859 0 0 0 3.863 3.87Zm0-2.366a1.495 1.495 0 0 1-1.507-1.504c0-.864.658-1.525 1.507-1.525.849 0 1.513.661 1.513 1.525a1.49 1.49 0 0 1-1.513 1.504Zm-.002-6.711c1.236 0 2.245-.988 2.224-2.223-.01-1.226-.988-2.19-2.224-2.2-1.224-.024-2.212.966-2.212 2.2a2.2 2.2 0 0 0 2.212 2.223Zm.002-1.226a.978.978 0 0 1-.982-.997c0-.557.428-.99.982-.99.544 0 .99.453.99.99a.99.99 0 0 1-.99.997Z"
					/>
				</symbol>
				<symbol
					xmlns="http://www.w3.org/2000/svg"
					id="menu-donate"
					fill="none"
					viewBox="0 0 24 25"
				>
					<path
						fill="currentColor"
						d="M4.778 17.463h2.46c.593 0 .985-.4.985-.963v-1.858c0-.573-.392-.964-.984-.964H4.778c-.593 0-.985.391-.985.964V16.5c0 .563.392.963.985.963Zm-3.65-7.077h21.52v-2.35H1.128v2.35Zm2.167 10.862h17.176c2.178 0 3.295-1.11 3.295-3.254V7.129c0-2.143-1.117-3.262-3.295-3.262H3.295C1.127 3.867 0 4.986 0 7.13v10.865c0 2.143 1.127 3.254 3.295 3.254Zm.114-1.968c-.934 0-1.441-.482-1.441-1.458V7.302c0-.977.507-1.467 1.441-1.467h16.948c.917 0 1.44.49 1.44 1.468v10.519c0 .976-.523 1.458-1.44 1.458H3.409Z"
					/>
				</symbol>
				<symbol
					xmlns="http://www.w3.org/2000/svg"
					id="menu-reports"
					fill="none"
					viewBox="0 0 24 26"
				>
					<path
						fill="currentColor"
						d="M7.76 11.469h8.531c.387 0 .713-.32.713-.706a.722.722 0 0 0-.713-.714H7.76a.723.723 0 0 0-.714.714c0 .387.328.706.714.706Zm0 3.555h8.531a.708.708 0 0 0 .713-.712.7.7 0 0 0-.713-.696H7.76a.702.702 0 0 0-.714.696c0 .396.316.712.714.712Zm0 3.748h4.369a.709.709 0 0 0 .706-.706.7.7 0 0 0-.706-.703h-4.37a.709.709 0 0 0-.714.703c0 .388.328.706.714.706Zm-1.066 6.35h10.659c2.135 0 3.267-1.143 3.267-3.31V6.615c0-2.125-1.097-3.31-3.175-3.31h-.226c.037.126.051.269.051.41v.932c0 .207-.023.41-.078.585h.212c.852 0 1.29.553 1.29 1.403v15.157c0 .9-.489 1.403-1.425 1.403H6.78c-.938 0-1.425-.504-1.425-1.403V6.635c0-.85.438-1.403 1.29-1.403h.21a1.968 1.968 0 0 1-.078-.585v-.932c0-.141.014-.284.053-.41h-.228c-2.076 0-3.173 1.185-3.173 3.31v15.197c0 2.167 1.13 3.31 3.265 3.31ZM8.928 5.8h6.191c.605 0 .969-.386.969-1.03V3.714c0-.646-.364-1.03-.969-1.03h-.851A2.259 2.259 0 0 0 12.024.57a2.259 2.259 0 0 0-2.242 2.114h-.854c-.603 0-.967.384-.967 1.03V4.77c0 .645.364 1.03.967 1.03Zm3.096-2.147a.888.888 0 0 1 0-1.778c.49 0 .885.397.885.893a.891.891 0 0 1-.885.885Z"
					/>
				</symbol>
				<symbol
					xmlns="http://www.w3.org/2000/svg"
					id="menu-settings"
					fill="none"
					viewBox="0 0 23 23"
				>
					<path
						fill="currentColor"
						d="M10.745 22.083h2.038c.83 0 1.478-.515 1.67-1.31l.409-1.776.267-.093 1.55.95c.7.437 1.52.328 2.109-.264l1.412-1.4c.592-.6.698-1.424.26-2.113l-.966-1.538.099-.249 1.773-.42a1.68 1.68 0 0 0 1.306-1.67v-1.982c0-.82-.512-1.476-1.306-1.67L19.61 8.12l-.107-.265.967-1.54c.439-.687.331-1.504-.261-2.111l-1.412-1.409c-.58-.584-1.4-.697-2.1-.264l-1.55.95-.285-.109-.408-1.777c-.192-.796-.84-1.31-1.67-1.31h-2.038c-.83 0-1.478.518-1.67 1.31L8.66 3.372l-.284.11-1.542-.951c-.7-.429-1.529-.32-2.109.264L3.321 4.204c-.593.607-.709 1.424-.261 2.112l.958 1.539-.099.265-1.757.428c-.797.196-1.306.85-1.306 1.67V12.2c0 .821.52 1.476 1.306 1.67l1.774.42.09.249-.958 1.539c-.447.688-.331 1.512.26 2.112l1.404 1.4c.589.592 1.417.701 2.117.264l1.543-.95.267.093.416 1.777c.192.793.84 1.309 1.67 1.309Zm.25-1.82c-.17 0-.256-.072-.285-.228l-.595-2.474a5.55 5.55 0 0 1-1.733-.712l-2.175 1.335c-.119.089-.246.07-.363-.047l-1.071-1.07c-.11-.11-.115-.228-.039-.362l1.341-2.158a6.67 6.67 0 0 1-.698-1.72l-2.475-.585c-.155-.028-.227-.115-.227-.284v-1.506c0-.177.064-.254.227-.284l2.467-.594c.157-.667.453-1.292.69-1.727L4.726 5.688c-.085-.141-.082-.26.029-.379l1.081-1.053c.117-.117.227-.133.37-.047l2.158 1.31c.455-.271 1.119-.544 1.757-.713l.59-2.473c.028-.155.114-.227.284-.227h1.539c.169 0 .254.072.276.227l.605 2.49a6.772 6.772 0 0 1 1.733.705l2.16-1.315c.153-.087.254-.072.38.047l1.072 1.053c.119.118.115.237.03.379l-1.328 2.155c.243.433.532 1.06.688 1.724l2.476.597c.156.03.228.107.228.284v1.506c0 .169-.082.256-.228.284l-2.485.589a6.428 6.428 0 0 1-.696 1.716l1.335 2.155c.079.133.082.252-.036.362l-1.063 1.07c-.13.119-.246.133-.373.046l-2.166-1.331a5.577 5.577 0 0 1-1.727.712l-.605 2.474c-.022.156-.107.228-.276.228h-1.54Zm.768-5.26c2.09 0 3.81-1.718 3.81-3.819 0-2.082-1.72-3.799-3.81-3.799s-3.819 1.717-3.819 3.8a3.836 3.836 0 0 0 3.82 3.818Zm0-1.723a2.098 2.098 0 0 1-2.085-2.096c0-1.136.943-2.075 2.085-2.075 1.126 0 2.066.943 2.066 2.075 0 1.147-.94 2.096-2.066 2.096Z"
					/>
				</symbol>
				<symbol
					xmlns="http://www.w3.org/2000/svg"
					id="minus"
					fill="none"
					viewBox="0 0 21 5"
				>
					<path
						fill="currentColor"
						d="M.72 4.84V.96h19.8v3.88H.72Z"
					/>
				</symbol>
				<symbol
					xmlns="http://www.w3.org/2000/svg"
					id="more-news-arrow"
					fill="none"
					viewBox="0 0 48 20"
				>
					<path
						fill="currentColor"
						fill-rule="evenodd"
						d="M42.897 8.86H1v2.296h44.325l1.781-1.109-.002-.002L37.009.544v2.673l5.888 5.642ZM37.29 19.846l6.199-6.199-2.917-.022-3.276 3.276-.006 2.945Z"
						clip-rule="evenodd"
					/>
				</symbol>
				<symbol
					xmlns="http://www.w3.org/2000/svg"
					id="pause"
					fill="none"
					viewBox="0 0 16 17"
				>
					<path
						fill="currentColor"
						d="M6 0H2v17h4V0Zm8 0h-4v17h4V0Z"
					/>
				</symbol>
				<symbol
					xmlns="http://www.w3.org/2000/svg"
					id="payment-button-arrow"
					fill="none"
					viewBox="0 0 29 20"
				>
					<path
						fill="currentColor"
						fill-rule="evenodd"
						d="M23.896 8.49H.5v2.297h25.825l1.782-1.11-.015-.012L18.008.175v2.672l5.888 5.643Zm-5.604 10.988 6.199-6.2-2.917-.021-3.276 3.276-.006 2.945Z"
						clip-rule="evenodd"
					/>
				</symbol>
				<symbol
					xmlns="http://www.w3.org/2000/svg"
					id="personage-family"
					fill="none"
					viewBox="0 0 27 27"
				>
					<path
						fill="currentColor"
						d="M23.045 14.14h-2.643c-.36 0-.708.05-1.04.14a3.958 3.958 0 0 0-3.526-2.168h-4.672a3.958 3.958 0 0 0-3.527 2.168 3.96 3.96 0 0 0-1.039-.14H3.955A3.96 3.96 0 0 0 0 18.097v4.225a2.376 2.376 0 0 0 2.373 2.373h22.254A2.376 2.376 0 0 0 27 22.321v-4.225a3.96 3.96 0 0 0-3.955-3.955ZM7.209 16.068v7.045H2.373a.792.792 0 0 1-.791-.791v-4.225a2.376 2.376 0 0 1 2.373-2.373h2.643c.215 0 .423.03.62.083a4.488 4.488 0 0 0-.009.261Zm11 7.045H8.79v-7.045a2.376 2.376 0 0 1 2.373-2.373h4.672a2.376 2.376 0 0 1 2.373 2.373v7.045Zm7.209-.791a.792.792 0 0 1-.791.791h-4.836v-7.045a3.97 3.97 0 0 0-.01-.261c.198-.054.406-.083.621-.083h2.643a2.376 2.376 0 0 1 2.373 2.373v4.225Z"
					/>
					<path
						fill="currentColor"
						d="M5.277 6.671a3.519 3.519 0 0 0-3.515 3.515A3.518 3.518 0 0 0 5.277 13.7a3.519 3.519 0 0 0 3.514-3.514A3.518 3.518 0 0 0 5.277 6.67Zm0 5.447a1.935 1.935 0 0 1-1.933-1.932c0-1.066.867-1.933 1.933-1.933 1.065 0 1.932.867 1.932 1.933a1.935 1.935 0 0 1-1.932 1.932ZM13.5 2.306a4.7 4.7 0 0 0-4.695 4.695 4.7 4.7 0 0 0 4.695 4.696A4.7 4.7 0 0 0 18.195 7 4.7 4.7 0 0 0 13.5 2.306Zm0 7.809A3.117 3.117 0 0 1 10.387 7 3.117 3.117 0 0 1 13.5 3.888a3.117 3.117 0 0 1 3.113 3.113 3.117 3.117 0 0 1-3.113 3.114Zm8.223-3.444a3.518 3.518 0 0 0-3.514 3.515 3.518 3.518 0 0 0 3.514 3.514 3.518 3.518 0 0 0 3.515-3.514 3.518 3.518 0 0 0-3.515-3.515Zm0 5.447a1.935 1.935 0 0 1-1.932-1.932c0-1.066.867-1.933 1.932-1.933 1.066 0 1.933.867 1.933 1.933a1.935 1.935 0 0 1-1.933 1.932Z"
					/>
				</symbol>
				<symbol
					xmlns="http://www.w3.org/2000/svg"
					id="personage-hours"
					fill="none"
					viewBox="0 0 27 27"
				>
					<g fill="currentColor" clip-path="url(#a)">
						<path d="M13.5 0C6.056 0 0 6.056 0 13.5S6.056 27 13.5 27 27 20.944 27 13.5 20.944 0 13.5 0Zm0 25.313c-6.514 0-11.812-5.3-11.812-11.813 0-6.514 5.298-11.812 11.812-11.812 6.514 0 11.813 5.298 11.813 11.812 0 6.514-5.3 11.813-11.813 11.813Z" />
						<path d="M14.344 5.063h-1.688v8.786l5.31 5.31 1.193-1.193-4.815-4.815V5.063Z" />
					</g>
				</symbol>
				<symbol
					xmlns="http://www.w3.org/2000/svg"
					id="picture-error"
					fill="none"
					viewBox="0 0 86 84"
				>
					<g fill="currentColor" clip-path="url(#a)">
						<g clip-path="url(#b)">
							<path
								fill-rule="evenodd"
								d="M64.076 13.483h14.225c4.07 0 7.383 3.333 7.383 7.43v42.93c0 3.782-2.823 6.913-6.459 7.373L74.33 66.32h3.97a2.472 2.472 0 0 0 2.462-2.477v-42.93a2.472 2.472 0 0 0-2.461-2.477H26.446l-4.954-4.953h1.8l1.833-9.227C25.583 1.948 27.613.273 29.95.273h27.465c2.338 0 4.368 1.675 4.826 3.983l1.834 9.227Zm-6.66-8.256H29.951l-1.64 8.256h30.746l-1.64-8.256Z"
								clip-rule="evenodd"
							/>
							<path d="M14.421 13.483H9.066c-4.07 0-7.382 3.333-7.382 7.43v42.93c0 4.097 3.312 7.43 7.382 7.43h63.146l-4.954-4.953H9.066a2.472 2.472 0 0 1-2.46-2.477v-42.93a2.472 2.472 0 0 1 2.46-2.477h10.309l-4.954-4.953Z" />
							<path d="M30.59 29.652a18.327 18.327 0 0 0-5.117 12.727c0 10.106 8.169 18.328 18.21 18.328 4.95 0 9.444-1.997 12.73-5.233l-3.491-3.49a13.2 13.2 0 0 1-9.238 3.77c-7.328 0-13.29-6-13.29-13.375a13.37 13.37 0 0 1 3.687-9.236l-3.49-3.49Zm25.235 18.164a13.372 13.372 0 0 0 1.148-5.437c0-7.375-5.962-13.375-13.29-13.375-1.952 0-3.807.426-5.48 1.19l-3.662-3.662a18.012 18.012 0 0 1 9.143-2.481c10.041 0 18.21 8.222 18.21 18.328 0 3.31-.875 6.417-2.407 9.1l-3.662-3.663ZM22.684 24.05h-7.875a2.469 2.469 0 0 0-2.461 2.477 2.469 2.469 0 0 0 2.46 2.477h7.876a2.468 2.468 0 0 0 2.46-2.477 2.469 2.469 0 0 0-2.46-2.476Z" />
						</g>
						<path d="M0 5.535 3.535 2l77.782 77.78-3.535 3.536z" />
					</g>
				</symbol>
				<symbol
					xmlns="http://www.w3.org/2000/svg"
					id="place-rounded"
					fill="none"
					viewBox="0 0 40 40"
				>
					<circle
						cx="20"
						cy="20"
						r="19"
						stroke="currentColor"
						stroke-width="2"
					/>
				</symbol>
				<symbol
					xmlns="http://www.w3.org/2000/svg"
					id="place"
					fill="none"
					viewBox="0 0 21 21"
				>
					<path
						fill="currentColor"
						d="M12.56 20.76H8.64V12.8H.72V8.92h7.92V.96h3.92v7.96h7.96v3.88h-7.96v7.96Z"
					/>
				</symbol>
				<symbol
					xmlns="http://www.w3.org/2000/svg"
					id="platform-epic"
					fill="none"
					viewBox="0 0 56 62"
				>
					<path
						fill="currentColor"
						fill-rule="evenodd"
						d="M5 0h45.102c3.656 0 5.005 1.308 5.005 4.854v42.785a10.663 10.663 0 0 1-.073 1.312c-.071.707-.141 1.402-.822 2.185-.072.083-.83.63-.83.63l-.21.1c-.304.147-.56.27-.936.416l-22.209 9.021c-1.153.513-1.635.712-2.472.696h-.007c-.837.016-1.32-.184-2.472-.696l-22.209-9.02a12.17 12.17 0 0 1-.937-.417 60.893 60.893 0 0 0-.209-.1s-.758-.547-.83-.63c-.68-.783-.75-1.478-.822-2.185a10.675 10.675 0 0 1-.073-1.312V4.854C-.004 1.308 1.346 0 5.001 0Zm11.926 53.506h21.352L27.38 56.99l-10.454-3.484ZM47.08 43.014l-.01.099-.01.108-.021.099-.03.099-.02.088-.03.1-.042.088-.04.079-.04.089-.051.079-.051.079-.06.079-.052.079-.06.069-.071.069-.06.059-.082.07-.07.058-.082.06-.081.048-.081.06-.092.049-.09.04-.092.048-.102.04-.1.04-.102.03-.101.029-.092.03-.1.02-.092.019-.09.02-.103.02-.1.01-.092.009-.102.01-.111.01-.101.01h-.426l-.101-.01h-.111l-.102-.01-.102-.01-.11-.01-.102-.02-.101-.01-.102-.02-.101-.019-.102-.02-.1-.02-.102-.029-.092-.02-.1-.03-.102-.029-.091-.04-.102-.03-.09-.029-.102-.04-.092-.039-.09-.04-.092-.048-.091-.04-.091-.049-.081-.049-.092-.05-.08-.049-.082-.049-.08-.06-.082-.058-.081-.06-.081-.059-.071-.06-.081-.068.061-.079.07-.07.062-.078.07-.08.062-.068.06-.08.071-.078.06-.07.072-.078.06-.07.072-.078.06-.08.061-.068.071-.08.061-.078.07-.07.062-.078.08.06.092.058.081.06.091.059.082.05.09.058.081.05.092.04.08.048.092.04.092.04.09.039.092.03.091.039.101.03.102.03.09.029.102.02.102.02.1.019.112.01.102.02h.101l.111.01h.223l.112-.01.101-.02.091-.02.091-.02.082-.03.07-.039.082-.059.06-.069.041-.079.03-.089.01-.099v-.02l-.01-.118-.04-.098-.05-.07-.072-.059-.081-.059-.08-.04-.092-.039-.102-.04-.121-.048-.071-.02-.08-.02-.092-.03-.091-.02-.102-.029-.101-.02-.112-.03-.101-.019-.111-.03-.102-.02-.101-.029-.101-.02-.102-.03-.091-.029-.101-.02-.092-.03-.09-.029-.092-.03-.111-.04-.102-.039-.101-.039-.102-.04-.09-.049-.102-.05-.081-.048-.091-.05-.081-.059-.082-.05-.07-.059-.072-.069-.07-.069-.061-.069-.06-.069-.052-.069-.05-.079-.05-.089-.042-.068-.03-.08-.03-.088-.03-.079-.021-.099-.02-.089-.01-.098-.01-.099-.01-.108v-.228l.01-.098.01-.089.01-.099.02-.088.02-.09.031-.088.02-.089.04-.089.041-.088.04-.09.051-.088.051-.089.06-.079.062-.079.07-.079.072-.069.07-.079.082-.069.07-.05.082-.059.08-.059.081-.05.092-.048.091-.04.091-.05.092-.039.1-.03.102-.039.092-.03.08-.02.092-.019.091-.02.101-.02.091-.02.102-.009.101-.01.102-.01.1-.01h.437l.111.01.111.01h.102l.111.01.102.02.111.01.101.02.092.02.101.019.101.02.091.02.102.029.091.03.091.02.102.039.091.03.091.039.091.04.102.039.09.05.082.039.091.049.091.05.081.049.092.059.08.05.082.058.08.06.082.059-.06.079-.052.079-.06.079-.061.079-.06.089-.052.078-.06.08-.061.078-.051.08-.06.078-.062.08-.05.078-.061.089-.061.079-.06.079-.051.079-.06.079-.082-.06-.091-.049-.081-.05-.082-.058-.09-.04-.082-.05-.091-.039-.08-.04-.093-.039-.08-.04-.091-.029-.082-.04-.111-.029-.101-.03-.102-.029-.101-.02-.102-.02-.1-.02-.102-.01-.102-.009-.09-.01h-.224l-.112.02-.102.02-.09.02-.082.039-.07.04-.092.078-.061.09-.04.088-.01.099v.02l.01.128.05.108.041.06.07.069.092.049.081.05.101.039.112.04.122.039.08.02.081.029.092.02.091.03.101.02.112.029.112.03.111.029.111.02.102.03.11.029.103.02.101.03.101.029.091.03.102.029.091.03.091.03.112.038.101.05.101.039.102.05.091.049.091.049.081.05.081.059.081.049.081.069.082.069.07.079.071.069.06.08.062.088.05.079.051.089.041.079.03.088.03.09.02.088.021.099.02.099.01.098.01.109v.237l-.01.108Zm-7.108 1.973h-5.806v-7.184h5.857v1.629h-3.922v1.175h3.526v1.529h-3.526v1.223h3.973v1.628h-.102Zm-7.404 0h-1.855V40.74l-.05.08-.06.089-.052.079-.06.079-.051.089-.061.079-.05.079-.052.089-.06.079-.05.079-.062.079-.05.09-.061.078-.05.08-.052.088-.06.08-.05.078-.062.09-.05.078-.061.08-.05.088-.052.08-.06.078-.05.09-.062.079-.05.079-.061.079-.051.088-.05.08-.062.079-.05.089-.06.079-.052.079-.06.09-.051.078h-.04l-.061-.089-.051-.08-.06-.088-.052-.08-.06-.088-.051-.08-.06-.088-.052-.08-.06-.088-.05-.079-.062-.09-.05-.078-.061-.09-.051-.078-.06-.09-.052-.078-.06-.09-.061-.078-.05-.09-.061-.079-.051-.088-.06-.08-.052-.089-.06-.079-.051-.088-.061-.08-.05-.088-.062-.08-.05-.089-.06-.079-.052-.088-.06-.08-.051-.089-.06-.079v4.227h-1.927v-7.184h2.078l.05.08.052.089.06.078.051.089.05.079.051.089.051.078.06.089.051.079.051.079.05.088.052.079.06.089.05.079.052.088.05.079.061.079.051.088.05.079.051.089.05.079.062.088.05.079.05.089.052.078.05.079.061.089.051.079.05.089.051.078.05.089.062.079.05.088.05.08.052-.08.05-.088.061-.08.05-.088.051-.078.051-.09.06-.078.052-.089.05-.079.05-.078.062-.089.05-.079.051-.088.05-.08.061-.088.051-.079.051-.088.05-.08.052-.078.06-.088.05-.08.052-.088.05-.08.061-.087.05-.08.051-.078.051-.09.06-.077.051-.09.05-.078.052-.09.06-.077.051-.09.05-.078h2.079v7.183h-.101Zm-11.758-2.96-.031-.09-.04-.098-.04-.089-.031-.09-.04-.088-.041-.099-.03-.09-.042-.088-.04-.089-.03-.089-.041-.099-.03-.089-.04-.089-.041-.089-.03-.089-.041-.099-.04-.089-.031-.088-.04-.09-.041-.099-.03-.089-.041-.089-.04.089-.03.09-.042.098-.04.09-.03.088-.041.09-.04.098-.04.09-.032.088-.04.09-.04.088-.03.099-.041.09-.041.088-.03.089-.04.09-.042.098-.04.089-.03.09-.04.088-.042.099-.03.09-.04.088h1.712l-.04-.089Zm3.182 2.96h-1.987l-.04-.089-.03-.089-.041-.088-.04-.099-.03-.088-.041-.089-.041-.089-.03-.089-.04-.088-.042-.09-.03-.088-.04-.099-.041-.089-.03-.088-.041-.09h-2.909l-.04.09-.03.088-.041.09-.04.098-.03.089-.041.089-.041.088-.03.09-.04.088-.041.089-.03.088-.041.099-.04.089-.031.088-.041.09h-2.046l.04-.09.04-.089.04-.088.041-.099.03-.088.041-.089.041-.089.04-.089.04-.088.042-.1.04-.088.04-.089.03-.089.042-.088.04-.09.04-.098.041-.089.04-.089.041-.088.04-.09.031-.088.04-.099.041-.088.04-.09.04-.088.042-.089.04-.089.04-.099.031-.088.04-.09.041-.088.04-.089.041-.089.041-.098.04-.09.04-.088.031-.089.041-.089.04-.088.041-.1.04-.088.04-.089.041-.089.041-.088.03-.09.04-.087.042-.1.04-.088.04-.089.041-.089.04-.088.04-.09.031-.098.041-.089.04-.089.041-.088.04-.09.041-.088.04-.099.041-.089.03-.088.041-.09.04-.088.041-.089.041-.098.04-.09.041-.088.04-.089.03-.089.041-.089.041-.098.04-.09.041-.088.04-.089.041-.089.04-.088.031-.099.04-.089.041-.089.04-.089h1.875l.041.09.04.088.041.089.04.099.031.088.04.09.041.088.04.089.041.089.04.098.041.09.041.088.03.089.04.089.041.089.041.098.04.089.041.089.04.089.04.088.031.09.041.098.04.089.041.089.04.088.041.09.04.088.041.099.03.089.04.088.041.09.041.088.041.089.04.099.04.088.041.089.03.088.041.09.04.088.041.089.04.099.041.088.041.09.04.088.03.089.042.089.04.098.04.09.041.088.04.089.041.089.04.088.031.1.04.088.041.089.04.089.04.089.042.088.04.099.041.089.03.089.04.088.041.09.04.088.041.099.041.089.04.088.04.09.031.088.041.089.04.099.04.088.042.09.04.088.04.089.041.088.03.099.04.089.041.088.041.09h-.1Zm-8.878-.917-.082.06-.07.049-.082.059-.08.05-.081.058-.082.05-.08.05-.092.048-.091.05-.091.049-.092.039-.091.05-.101.039-.091.04-.102.039-.09.04-.092.029-.092.03-.09.03-.102.029-.09.03-.103.019-.09.02-.102.02-.102.02-.1.009-.112.01-.101.01-.112.01-.102.01-.11.01h-.437l-.101-.01-.112-.01-.1-.01-.102-.01-.102-.01-.1-.02-.102-.02-.091-.02-.102-.019-.09-.03-.102-.02-.092-.029-.09-.04-.092-.029-.1-.04-.092-.039-.091-.04-.091-.039-.092-.05-.08-.048-.092-.05-.081-.049-.081-.049-.082-.06-.08-.058-.081-.06-.072-.059-.07-.059-.072-.07-.07-.058-.072-.07-.07-.069-.061-.069-.06-.079-.062-.069-.05-.078-.061-.08-.051-.078-.05-.08-.051-.088-.051-.08-.04-.088-.041-.089-.04-.089-.04-.088-.031-.08-.041-.088-.02-.09-.03-.088-.02-.099-.031-.088-.02-.099-.01-.089-.021-.099-.01-.088-.01-.1-.01-.098-.01-.098v-.326l.01-.109v-.098l.01-.1.01-.108.02-.098.01-.098.02-.09.031-.098.02-.099.03-.089.03-.098.031-.089.041-.099.04-.088.041-.09.04-.088.04-.089.052-.089.05-.079.051-.079.05-.079.052-.079.06-.079.061-.078.06-.08.062-.069.07-.069.062-.069.07-.069.071-.069.071-.059.082-.07.07-.058.081-.06.082-.049.08-.06.082-.048.08-.05.092-.05.091-.048.091-.05.091-.04.092-.039.101-.05.081-.029.101-.03.092-.039.09-.02.092-.03.101-.019.092-.03.1-.02.102-.01.102-.019.101-.01.101-.01.101-.01.102-.01h.435l.113.01.11.01h.102l.101.01.112.02.091.01.101.02.102.02.091.02.091.019.091.02.092.03.09.019.082.03.091.03.091.039.091.04.092.039.091.049.091.04.082.049.09.05.081.048.092.05.08.059.082.05.081.059.08.059.082.069.081.059-.06.08-.072.068-.06.079-.071.079-.061.079-.06.069-.072.079-.06.079-.062.07-.07.078-.061.079-.071.079-.061.069-.06.079-.072.079-.06.079-.072.069-.06.079-.082-.06-.08-.068-.082-.05-.08-.06-.082-.048-.08-.05-.082-.049-.09-.05-.082-.039-.081-.04-.082-.029-.09-.03-.091-.03-.092-.019-.101-.02-.102-.02-.1-.01-.112-.01-.112-.009h-.213l-.102.01-.091.01-.102.02-.09.02-.092.029-.091.03-.091.039-.091.04-.082.049-.08.05-.082.048-.07.06-.072.059-.07.06-.062.068-.07.07-.061.078-.05.07-.052.078-.05.089-.05.079-.041.089-.031.089-.04.089-.03.098-.021.098-.02.089-.02.109-.01.098-.01.099v.227l.01.099.01.089.01.098.02.089.02.089.02.089.031.088.03.08.04.098.041.089.05.089.052.079.05.079.061.079.061.069.07.069.062.069.07.059.082.06.08.059.082.049.08.05.092.039.091.04.091.039.102.03.101.029.102.02.101.02.101.01.111.009h.234l.113-.01.11-.01.102-.01.101-.02.102-.02.101-.029.091-.02.091-.039.082-.04.09-.039.072-.04.08-.049v-.898h-1.477v-1.44h3.343v3.207l-.07.059Zm-3.26-22.519h4.393v-3.294h-4.392v-6.724h4.567V8.239H8.125v23.772h8.366v-3.294h-4.636V21.55Zm31.463 6.08v-5.366h3.66v5.536c0 2.954-1.498 4.414-4.531 4.414h-1.848c-3.032 0-4.532-1.46-4.532-4.414V12.45c0-2.955 1.5-4.415 4.532-4.415h1.813c3.032 0 4.497 1.427 4.497 4.38v4.857h-3.66V12.62c0-.951-.454-1.393-1.395-1.393h-.627c-.976 0-1.43.442-1.43 1.393v15.01c0 .951.454 1.392 1.43 1.392h.697c.94 0 1.394-.44 1.394-1.392Zm-12.954 4.38h3.73V8.239h-3.73v23.772Zm-6.806-11.818c.941 0 1.394-.442 1.394-1.393v-5.977c0-.95-.453-1.392-1.394-1.392h-1.534v8.762h1.534ZM18.293 8.24h5.856c3.033 0 4.532 1.46 4.532 4.415v6.317c0 2.954-1.499 4.414-4.532 4.414h-2.126v8.626h-3.73V8.239Z"
						clip-rule="evenodd"
					/>
				</symbol>
				<symbol
					xmlns="http://www.w3.org/2000/svg"
					id="platform-rockstar"
					fill="none"
					viewBox="0 0 49 47"
				>
					<g fill="currentColor" clip-path="url(#a)">
						<path d="M48.661 46.669c-.226.236-.476.355-.794.355-.317 0-.567-.119-.793-.355-.227-.236-.318-.496-.318-.827 0-.331.113-.591.318-.828a1.02 1.02 0 0 1 .793-.33c.318 0 .568.117.794.33.227.236.34.497.34.828 0 .307-.113.59-.34.827Zm-1.474-1.537a.984.984 0 0 0-.272.71c0 .283.09.52.272.709a.924.924 0 0 0 .68.307c.273 0 .5-.094.681-.307a.984.984 0 0 0 .272-.71c0-.283-.09-.52-.272-.709a.904.904 0 0 0-.68-.283c-.25-.024-.477.07-.681.283Zm.68.048c.16 0 .273.023.34.047.137.047.182.165.182.33 0 .119-.045.19-.113.26a1.53 1.53 0 0 1-.182.072c.091.023.16.047.204.118a.388.388 0 0 1 .069.19v.283h-.205v-.166c0-.142-.045-.236-.113-.283a.585.585 0 0 0-.25-.048h-.158v.497h-.227v-1.277h.453v-.023Zm.227.212a.63.63 0 0 0-.272-.047h-.181v.45h.204c.09 0 .159 0 .204-.024.09-.024.136-.095.136-.19 0-.094-.045-.141-.09-.189Z" />
						<path d="M40.47 0H8.688C3.902 0 0 3.948 0 8.771v29.434c0 4.894 3.766 8.748 8.598 8.748h31.804c4.832 0 8.598-3.854 8.598-8.748V8.771C49 3.854 45.257 0 40.47 0Zm7.555 38.205c0 4.35-3.358 7.731-7.645 7.731H8.598c-4.288.024-7.623-3.38-7.623-7.73V8.77c0-4.35 3.38-7.778 7.713-7.778h31.805c4.242 0 7.554 3.404 7.554 7.778v29.434h-.022Z" />
						<path d="M42.08 27.945h-6.148l-.975-6.384-3.584 6.336h-.68c-.41-.732-.568-1.796-.568-2.458 0-1.088.068-2.152.068-3.547 0-1.844-.522-2.813-1.906-3.168v-.047c2.927-.425 4.265-2.459 4.265-5.296 0-4.042-2.586-4.917-5.966-4.917H17.49l-3.856 19.008h4.832l1.406-6.927h3.222c1.724 0 2.427.874 2.427 2.553 0 1.277-.136 2.293-.136 3.263 0 .354.068 1.205.317 1.536l3.494 3.854-3.017 6.738 6.442-3.995 4.81 3.853-.885-6.36 5.535-4.042ZM24.544 16.998h-3.856l.93-4.586h3.584c1.27 0 2.61.355 2.61 1.962 0 2.057-1.52 2.624-3.268 2.624Zm8.167 16.384-4.492 2.79 2.065-4.586-2.496-2.743h4.106l2.587-4.563.703 4.61h4.083l-3.675 2.672.658 4.681-3.539-2.86Z" />
					</g>
				</symbol>
				<symbol
					xmlns="http://www.w3.org/2000/svg"
					id="platform-steam"
					fill="none"
					viewBox="0 0 60 62"
				>
					<g clip-path="url(#a)">
						<path
							fill="currentColor"
							d="M29.8 0C14.091 0 1.222 12.547 0 28.49l16.028 6.864a8.204 8.204 0 0 1 5.235-1.51L28.39 23.14v-.15c0-6.44 5.058-11.681 11.277-11.681 6.218 0 11.276 5.24 11.276 11.68 0 6.44-5.058 11.684-11.276 11.684-.086 0-.17-.002-.256-.005L29.245 42.18c.006.14.01.279.01.416 0 4.836-3.797 8.77-8.464 8.77-4.096 0-7.524-3.03-8.299-7.041l-11.464-4.91C4.578 52.417 16.111 61.95 29.8 61.95c16.516 0 29.904-13.87 29.904-30.975C59.704 13.867 46.316 0 29.8 0ZM18.74 46.998l-3.673-1.572c.65 1.405 1.777 2.58 3.272 3.224 3.232 1.396 6.959-.192 8.306-3.542a6.757 6.757 0 0 0 .01-5.035c-.645-1.626-1.865-2.894-3.43-3.57a6.133 6.133 0 0 0-4.684-.072l3.796 1.625c2.384 1.03 3.512 3.865 2.518 6.334-.992 2.47-3.732 3.638-6.116 2.608Zm28.442-24.007c0-4.291-3.372-7.785-7.514-7.785-4.144 0-7.515 3.494-7.515 7.785s3.371 7.783 7.516 7.783c4.141 0 7.513-3.492 7.513-7.783Zm-13.147-.013c0-3.23 2.529-5.846 5.644-5.846 3.118 0 5.646 2.617 5.646 5.846 0 3.228-2.528 5.845-5.646 5.845-3.115 0-5.644-2.617-5.644-5.845Z"
						/>
					</g>
				</symbol>
				<symbol
					xmlns="http://www.w3.org/2000/svg"
					id="play-rounded"
					fill="none"
					viewBox="0 0 66 66"
				>
					<g fill="currentColor" clip-path="url(#a)" filter="url(#b)">
						<path d="M33 0C17.008 0 4 13.01 4 29s13.008 29 29 29 29-13.01 29-29S48.992 0 33 0Zm0 55.583C18.342 55.583 6.417 43.658 6.417 29 6.417 14.342 18.342 2.417 33 2.417c14.658 0 26.583 11.925 26.583 26.583 0 14.658-11.925 26.583-26.583 26.583Z" />
						<path d="M44.529 27.984 27.612 17.109a1.207 1.207 0 0 0-1.862 1.016v21.75a1.207 1.207 0 0 0 1.862 1.016L44.53 30.016a1.21 1.21 0 0 0 0-2.032Z" />
					</g>
				</symbol>
				<symbol
					xmlns="http://www.w3.org/2000/svg"
					id="play"
					fill="none"
					viewBox="0 0 20 25"
				>
					<path
						fill="currentColor"
						d="M18.779 11.068 1.862.193A1.207 1.207 0 0 0 0 1.209v21.75a1.207 1.207 0 0 0 1.862 1.016L18.78 13.1a1.21 1.21 0 0 0 0-2.032Z"
					/>
				</symbol>
				<symbol
					xmlns="http://www.w3.org/2000/svg"
					id="players"
					fill="none"
					viewBox="0 0 36 36"
				>
					<g fill="currentColor" clip-path="url(#a)">
						<path d="M18 14.529a6.117 6.117 0 1 0 0-12.235 6.117 6.117 0 0 0 0 12.235Zm12.375 0a3.867 3.867 0 1 0 0-7.735 3.867 3.867 0 0 0 0 7.735Zm-24.75 0a3.867 3.867 0 1 0 0-7.735 3.867 3.867 0 0 0 0 7.735Zm3.81 3.472c-1.522-1.247-2.9-1.082-4.66-1.082C2.141 16.92 0 19.05 0 21.665v7.678c0 1.137.927 2.06 2.068 2.06 4.924 0 4.33.09 4.33-.212 0-5.44-.644-9.431 3.037-13.19Z" />
						<path d="M19.674 16.947c-3.075-.256-5.747.003-8.052 1.906-3.857 3.09-3.114 7.25-3.114 12.338a2.467 2.467 0 0 0 2.462 2.463c14.842 0 15.432.478 16.312-1.47.289-.66.21-.45.21-6.755 0-5.009-4.337-8.482-7.818-8.482Zm11.552-.027c-1.77 0-3.141-.164-4.662 1.081 3.654 3.73 3.037 7.449 3.037 13.19 0 .304-.492.213 4.257.213A2.14 2.14 0 0 0 36 29.27v-7.605c0-2.617-2.142-4.746-4.774-4.746Z" />
					</g>
				</symbol>
				<symbol
					xmlns="http://www.w3.org/2000/svg"
					id="playkeys"
					fill="none"
					viewBox="0 0 89 76"
				>
					<path
						fill="currentColor"
						d="M8.55 75.2v-9.48h3.873c2.261 0 3.63 1.327 3.63 3.277v.028c0 2.207-1.707 3.331-3.834 3.331h-1.584V75.2H8.549Zm2.085-4.7h1.652c1.043 0 1.652-.622 1.652-1.435v-.027c0-.934-.65-1.435-1.692-1.435h-1.612V70.5Zm6.96 4.7v-9.48h2.086v7.584h4.727V75.2h-6.812Zm7.573 0 4.063-9.548h1.923l4.063 9.548h-2.18l-.867-2.126h-4.01l-.866 2.126h-2.126Zm3.738-3.968h2.519l-1.26-3.074-1.26 3.074Zm8.947 3.968v-3.738L34.21 65.72h2.438l2.262 3.805 2.302-3.805h2.37l-3.643 5.701V75.2h-2.086Zm7.027 0v-9.48h2.085v4.144l3.82-4.144h2.559l-3.873 4.022 4.036 5.458H51l-2.939-4.036-1.097 1.138V75.2H44.88Zm9.892 0v-9.48h7.151v1.855h-5.079V69.5h4.47v1.855h-4.47v1.99h5.147V75.2h-7.219Zm11.74 0v-3.738L62.87 65.72h2.438l2.261 3.805 2.303-3.805h2.37l-3.644 5.701V75.2h-2.085Zm9.923.135c-1.449 0-2.884-.487-4.022-1.516l1.233-1.477c.866.705 1.746 1.152 2.83 1.152.867 0 1.368-.339 1.368-.894v-.027c0-.528-.325-.813-1.91-1.206-1.923-.474-3.142-1.029-3.142-2.898v-.027c0-1.72 1.368-2.857 3.318-2.857 1.395 0 2.546.433 3.521 1.205l-1.083 1.57c-.853-.582-1.652-.934-2.465-.934-.812 0-1.219.352-1.219.826v.028c0 .636.407.812 2.045 1.245 1.923.515 3.007 1.192 3.007 2.844v.028c0 1.882-1.436 2.938-3.48 2.938ZM43.51 4a23 23 0 1 0 23 23h-9.537A13.463 13.463 0 1 1 43.51 13.537V4Z"
					/>
					<path
						fill="currentColor"
						d="M47.01 28V0l24.5 14-24.5 14Z"
					/>
				</symbol>
				<symbol
					xmlns="http://www.w3.org/2000/svg"
					id="playlist-add"
					fill="none"
					viewBox="0 0 26 26"
				>
					<path
						stroke="currentColor"
						stroke-linecap="round"
						stroke-width="2"
						d="M2 6h20M2 11h20M2 16h11m3 2h8m-4-4v8"
					/>
				</symbol>
				<symbol
					xmlns="http://www.w3.org/2000/svg"
					id="playlist-remove"
					fill="none"
					viewBox="0 0 26 26"
				>
					<path
						stroke="currentColor"
						stroke-linecap="round"
						stroke-width="2"
						d="M2 6h20M2 11h20M2 16h11m10.5-.5-4.178 5.43a1 1 0 0 1-1.606-.028L16 18.5"
					/>
				</symbol>
				<symbol
					xmlns="http://www.w3.org/2000/svg"
					id="plus"
					fill="none"
					viewBox="0 0 32 32"
				>
					<g clip-path="url(#a)">
						<path
							fill="currentColor"
							d="M14.75 21.624v-4.375h-4.375a1.25 1.25 0 1 1 0-2.5h4.375v-4.375a1.25 1.25 0 0 1 2.5 0v4.375h4.375a1.25 1.25 0 0 1 0 2.5H17.25v4.375a1.25 1.25 0 1 1-2.5 0ZM27.314 4.686A15.895 15.895 0 0 0 16 0 15.895 15.895 0 0 0 4.686 4.686 15.895 15.895 0 0 0 0 16c0 4.274 1.664 8.292 4.686 11.314A15.895 15.895 0 0 0 16 32a15.97 15.97 0 0 0 8.279-2.306 1.25 1.25 0 1 0-1.295-2.138A13.477 13.477 0 0 1 16 29.5C8.556 29.5 2.5 23.444 2.5 16S8.556 2.5 16 2.5 29.5 8.556 29.5 16c0 2.662-.791 5.253-2.29 7.493a1.25 1.25 0 1 0 2.08 1.39A15.94 15.94 0 0 0 32 16c0-4.274-1.664-8.292-4.686-11.314Z"
						/>
					</g>
				</symbol>
				<symbol
					xmlns="http://www.w3.org/2000/svg"
					id="promo-play"
					fill="none"
					viewBox="0 0 68 68"
				>
					<circle cx="34" cy="34" r="34" fill="currentColor" />
					<path
						fill="currentColor"
						d="M49.191 35.085 27.49 48.468V21.702l21.702 13.383Z"
					/>
				</symbol>
				<symbol
					xmlns="http://www.w3.org/2000/svg"
					id="quot-end"
					fill="none"
					viewBox="0 0 45 32"
				>
					<path
						fill="currentColor"
						d="m29.505 31.145-1.62-4.725c6.885-2.565 9.585-5.94 9.045-11.745h-4.86V.5h12.285v12.15c0 10.935-4.59 16.2-14.85 18.495Zm-27 0L.885 26.42c6.885-2.565 9.585-5.94 9.045-11.745H5.07V.5h12.42v12.15c0 10.935-4.725 16.2-14.985 18.495Z"
					/>
				</symbol>
				<symbol
					xmlns="http://www.w3.org/2000/svg"
					id="quot-start"
					fill="none"
					viewBox="0 0 45 32"
				>
					<path
						fill="currentColor"
						d="M27.72 31.47V19.32c0-10.935 4.59-16.2 14.85-18.495l1.62 4.725c-6.885 2.565-9.45 5.94-9.045 11.745h4.86V31.47H27.72Zm-27 0V19.32C.72 8.385 5.31 3.12 15.57.825l1.62 4.725c-6.885 2.565-9.45 5.94-9.045 11.745h4.995V31.47H.72Z"
					/>
				</symbol>
				<symbol
					xmlns="http://www.w3.org/2000/svg"
					id="ref-arrow-down"
					fill="none"
					viewBox="0 0 50 43"
				>
					<path
						fill="currentColor"
						fill-rule="evenodd"
						d="m49.799 0-24.9 24.9-2.66-2.661-.773-.773L0 0h7.114l17.848 17.847 3.494-3.619L42.685 0h7.114ZM22.04 39.485l-.575-.575L0 17.444h7.114l17.719 17.98 3.623-3.752 14.229-14.228h7.114l-24.9 24.9-2.858-2.859Z"
						clip-rule="evenodd"
					/>
				</symbol>
				<symbol
					xmlns="http://www.w3.org/2000/svg"
					id="referral-system"
					fill="none"
					viewBox="0 0 30 30"
				>
					<path
						fill="currentColor"
						d="M1.216 14.841v1.497h11.593c-.71 1.428-2.917 3.46-4.551 3.67-.681.102-1.066.515-1.066 1.14 0 .595.465 1.164 1.248 1.048 1.866-.301 4.692-2.386 5.507-4.853h.085v8.276h1.633v-8.276h.098c.813 2.467 3.638 4.552 5.506 4.853.782.116 1.248-.453 1.248-1.048 0-.625-.384-1.038-1.076-1.14-1.626-.21-3.844-2.242-4.543-3.67h11.488V14.84h-8.441c1.454-.706 2.446-1.951 2.446-3.45 0-1.778-1.318-3.106-3.1-3.106-1.496 0-2.832.922-3.626 2.414V4.747h-1.633v5.952c-.784-1.492-2.117-2.414-3.624-2.414-1.771 0-3.1 1.328-3.1 3.107 0 1.498 1 2.743 2.444 3.45H1.216Zm12.254-.159c-2.31 0-4.288-1.606-4.288-3.089 0-.886.54-1.419 1.38-1.419 1.73 0 3.251 1.957 3.251 4.18v.329h-.343Zm2.757 0h-.34v-.329c0-2.222 1.518-4.179 3.248-4.179.853 0 1.382.533 1.382 1.419 0 1.483-1.967 3.09-4.29 3.09ZM4.119 26.024h21.47c2.722 0 4.118-1.388 4.118-4.068V8.376c0-2.68-1.396-4.078-4.119-4.078H4.119C1.409 4.298 0 5.697 0 8.376v13.58c0 2.68 1.409 4.068 4.119 4.068Zm.142-2.46c-1.167 0-1.801-.602-1.801-1.822V8.592c0-1.221.634-1.834 1.801-1.834h21.185c1.147 0 1.801.613 1.801 1.835v13.149c0 1.22-.654 1.822-1.801 1.822H4.26Z"
					/>
				</symbol>
				<symbol
					xmlns="http://www.w3.org/2000/svg"
					id="referral"
					fill="none"
					viewBox="0 0 29 24"
				>
					<path
						fill="currentColor"
						d="M13.345 21.666h12.524c1.737 0 2.572-.543 2.572-1.722 0-2.75-3.439-6.44-8.835-6.44-5.387 0-8.825 3.69-8.825 6.44 0 1.179.835 1.723 2.564 1.723Zm-.334-1.735c-.238 0-.326-.072-.326-.26 0-1.538 2.488-4.432 6.92-4.432 4.443 0 6.931 2.894 6.931 4.432 0 .188-.096.26-.333.26H13.01Zm6.603-7.6c2.429 0 4.395-2.145 4.395-4.773 0-2.593-1.965-4.651-4.395-4.651-2.42 0-4.404 2.091-4.394 4.67.01 2.617 1.967 4.755 4.394 4.755Zm0-1.735c-1.389 0-2.574-1.326-2.574-3.023-.01-1.65 1.166-2.931 2.574-2.931 1.412 0 2.576 1.264 2.576 2.916 0 1.693-1.175 3.038-2.576 3.038Z"
					/>
					<path
						fill="currentColor"
						d="M2.439 21.668h7.807c-.546-.318-.91-1.036-.835-1.703H2.337c-.197 0-.274-.08-.274-.25 0-2.316 2.712-4.527 5.906-4.527 1.126 0 2.26.282 3.138.773a4.529 4.529 0 0 1 1.29-1.253c-1.271-.792-2.857-1.22-4.428-1.22-4.243 0-7.683 3.038-7.683 6.38 0 1.192.719 1.8 2.153 1.8Zm5.538-9.234c2.108 0 3.825-1.877 3.825-4.19 0-2.254-1.71-4.085-3.825-4.085-2.101 0-3.836 1.857-3.826 4.104.002 2.306 1.72 4.17 3.826 4.17Zm0-1.71c-1.15 0-2.114-1.096-2.114-2.46-.004-1.327.96-2.393 2.114-2.393 1.17 0 2.123 1.05 2.123 2.374 0 1.383-.97 2.479-2.123 2.479Z"
					/>
				</symbol>
				<symbol
					xmlns="http://www.w3.org/2000/svg"
					id="remove-violator"
					fill="none"
					viewBox="0 0 21 5"
				>
					<path
						fill="currentColor"
						d="M.72 4.84V.96h19.8v3.88H.72Z"
					/>
				</symbol>
				<symbol
					xmlns="http://www.w3.org/2000/svg"
					id="scroll-to-top-arrow"
					fill="none"
					viewBox="0 0 22 19"
				>
					<path
						fill="currentColor"
						d="M10.645.033 0 10.678h3.041l6.083-6.083v13.686h2.28V.794l-.76-.76Zm3.041 3.042v3.04l4.562 4.563h3.041l-7.603-7.604Z"
					/>
				</symbol>
				<symbol
					xmlns="http://www.w3.org/2000/svg"
					id="server-card-copy"
					fill="none"
					viewBox="0 0 23 28"
				>
					<path
						fill="currentColor"
						d="M14.4 28H4.328C2.002 28 .11 26.037.11 23.625V8.805c0-2.413 1.893-4.375 4.22-4.375H14.4c2.327 0 4.22 1.962 4.22 4.375v14.82c0 2.412-1.893 4.375-4.22 4.375ZM4.328 6.617c-1.163 0-2.11.982-2.11 2.188v14.82c0 1.206.947 2.188 2.11 2.188H14.4c1.163 0 2.11-.982 2.11-2.188V8.805c0-1.206-.947-2.188-2.11-2.188H4.328Zm18.51 14.274V4.375C22.838 1.963 20.945 0 18.619 0H6.912C6.33 0 5.857.49 5.857 1.094c0 .604.473 1.093 1.055 1.093H18.62c1.163 0 2.11.982 2.11 2.188v16.516c0 .604.472 1.093 1.054 1.093.583 0 1.055-.49 1.055-1.093Z"
					/>
				</symbol>
				<symbol
					xmlns="http://www.w3.org/2000/svg"
					id="skills"
					fill="none"
					viewBox="0 0 29 29"
				>
					<g clip-path="url(#a)">
						<path
							fill="currentColor"
							d="M24.85 17.927c-.631 0-1.209.23-1.655.612l-2.183-1.26a7.04 7.04 0 0 0 .568-2.779 7.04 7.04 0 0 0-.568-2.778l2.183-1.261a2.537 2.537 0 0 0 1.655.612 2.552 2.552 0 0 0 2.549-2.549 2.552 2.552 0 0 0-2.549-2.548 2.552 2.552 0 0 0-2.506 3.014l-2.184 1.26a7.082 7.082 0 0 0-4.81-2.78V4.95a2.553 2.553 0 0 0 1.699-2.402A2.552 2.552 0 0 0 14.5 0a2.552 2.552 0 0 0-2.549 2.549c0 1.107.71 2.052 1.7 2.403v2.52a7.083 7.083 0 0 0-4.81 2.78L6.654 8.99A2.552 2.552 0 0 0 4.15 5.976a2.552 2.552 0 0 0-2.549 2.548 2.552 2.552 0 0 0 2.549 2.55c.631 0 1.209-.232 1.655-.613l2.183 1.26A7.04 7.04 0 0 0 7.42 14.5c0 .986.203 1.925.568 2.779l-2.183 1.26a2.537 2.537 0 0 0-1.655-.612 2.552 2.552 0 0 0-2.549 2.549 2.552 2.552 0 0 0 2.549 2.548 2.552 2.552 0 0 0 2.505-3.014l2.185-1.26a7.082 7.082 0 0 0 4.81 2.78v2.52a2.553 2.553 0 0 0-1.699 2.402A2.552 2.552 0 0 0 14.5 29a2.552 2.552 0 0 0 2.549-2.549c0-1.107-.71-2.052-1.7-2.402v-2.52a7.082 7.082 0 0 0 4.81-2.78l2.186 1.261a2.552 2.552 0 0 0 2.506 3.014 2.552 2.552 0 0 0 2.548-2.548 2.552 2.552 0 0 0-2.549-2.55Zm0-10.252a.85.85 0 0 1 0 1.699.85.85 0 0 1 0-1.7ZM4.15 9.374a.85.85 0 0 1 0-1.7.85.85 0 0 1 0 1.7Zm0 11.951a.85.85 0 0 1 0-1.699.85.85 0 0 1 0 1.7ZM14.5 1.7a.85.85 0 0 1 0 1.7.85.85 0 0 1 0-1.7Zm0 25.602a.85.85 0 0 1 0-1.7.85.85 0 0 1 0 1.7Zm0-7.42a5.351 5.351 0 0 1-3.162-1.03A3.654 3.654 0 0 1 14.5 17.05c1.32 0 2.507.691 3.163 1.802a5.351 5.351 0 0 1-3.163 1.03Zm-1.416-5.947c0-.781.635-1.416 1.416-1.416.78 0 1.416.635 1.416 1.416 0 .78-.635 1.416-1.416 1.416-.78 0-1.416-.636-1.416-1.416Zm5.8 3.682a5.39 5.39 0 0 0-1.983-1.7c.446-.54.714-1.23.714-1.982a3.119 3.119 0 0 0-3.115-3.116 3.119 3.119 0 0 0-3.115 3.116c0 .752.268 1.443.713 1.982a5.394 5.394 0 0 0-1.982 1.7 5.351 5.351 0 0 1-.997-3.116A5.387 5.387 0 0 1 14.5 9.12a5.387 5.387 0 0 1 5.38 5.38c0 1.16-.369 2.236-.996 3.116Zm5.966 3.71a.85.85 0 0 1 0-1.7.85.85 0 0 1 0 1.7Z"
						/>
					</g>
				</symbol>
				<symbol
					xmlns="http://www.w3.org/2000/svg"
					id="slider-arrow-next"
					fill="none"
					viewBox="0 0 24 47"
				>
					<path
						fill="currentColor"
						d="M0 47v-6.28l11.702-11.483 3.2 3.14L0 47Zm19.019-18.662L24 23.45.106 0 0 6.176l17.601 17.272-1.782 1.75 3.2 3.14Z"
					/>
				</symbol>
				<symbol
					xmlns="http://www.w3.org/2000/svg"
					id="slider-arrow-prev"
					fill="none"
					viewBox="0 0 24 47"
				>
					<path
						fill="currentColor"
						d="M24 47v-6.28L12.298 29.237l-3.2 3.14L24 47ZM4.981 28.338 0 23.45 23.894 0 24 6.176 6.399 23.448l1.782 1.75-3.2 3.14Z"
					/>
				</symbol>
				<symbol
					xmlns="http://www.w3.org/2000/svg"
					id="social-discord"
					fill="none"
					viewBox="0 0 39 37"
				>
					<g fill="currentColor" clip-path="url(#a)">
						<path d="M6.335 32.677h22.577l-1.078-3.4 2.579 2.156 2.364 2.063L37.084 37V3.816C36.976 1.753 35.152 0 32.89 0L6.343.005C4.083.005 2.25 1.76 2.25 3.823V28.86c0 2.175 1.83 3.817 4.085 3.817ZM23.036 8.761l-.052.019.019-.019h.033Zm-12.082 1.957c2.902-2.057 5.592-1.958 5.592-1.958l.217.208c-3.551.825-5.162 2.37-5.162 2.37s.431-.206 1.183-.519c4.783-1.831 10.007-1.699 14.842.62 0 0-1.613-1.444-4.946-2.37l.294-.282c.461.002 2.9.085 5.509 1.943 0 0 2.92 4.856 2.92 10.822-.097-.114-1.812 2.569-6.224 2.661 0 0-.748-.823-1.28-1.541 2.581-.722 3.547-2.165 3.547-2.165-.847.52-1.62.828-2.247 1.136-.964.414-1.93.617-2.894.825-4.567.722-7.13-.485-9.553-1.443l-.828-.41s.965 1.443 3.443 2.165c-.651.723-1.296 1.544-1.296 1.544-4.41-.101-6.02-2.784-6.02-2.784 0-5.975 2.903-10.822 2.903-10.822Z" />
						<path d="M23.321 19.689c1.126 0 2.043-.925 2.043-2.066a2.051 2.051 0 0 0-2.043-2.058v.004c-1.12 0-2.04.922-2.042 2.063 0 1.132.916 2.057 2.042 2.057Zm-7.311 0c1.125 0 2.042-.925 2.042-2.066 0-1.133-.91-2.058-2.036-2.058l-.007.004a2.053 2.053 0 0 0-2.042 2.063c0 1.132.916 2.057 2.042 2.057Z" />
					</g>
				</symbol>
				<symbol
					xmlns="http://www.w3.org/2000/svg"
					id="social-tg"
					fill="none"
					viewBox="0 0 35 35"
				>
					<path
						fill="currentColor"
						fill-rule="evenodd"
						d="M35 17.5C35 27.165 27.165 35 17.5 35S0 27.165 0 17.5 7.835 0 17.5 0 35 7.835 35 17.5Zm-16.888-4.59c-1.705.714-5.1 2.185-10.2 4.4-.816.335-1.253.656-1.297.976-.064.542.614.753 1.53 1.037l.364.114c.904.292 2.099.627 2.725.642.569.014 1.195-.219 1.895-.7 4.764-3.22 7.212-4.852 7.373-4.881.116-.03.262-.058.364.029.102.088.102.262.087.306-.07.29-2.912 2.929-4.205 4.13-.334.309-.564.523-.618.576-.136.141-.276.274-.41.402-.836.801-1.463 1.402.031 2.382.68.448 1.228.822 1.768 1.19.652.445 1.292.882 2.137 1.432.2.131.39.267.576.4.726.515 1.381.981 2.193.912.466-.044.947-.481 1.195-1.792.583-3.09 1.72-9.807 1.981-12.575.03-.234 0-.54-.029-.685-.029-.146-.073-.335-.247-.481-.219-.175-.54-.204-.685-.204-.656.014-1.676.364-6.528 2.39Z"
						clip-rule="evenodd"
					/>
				</symbol>
				<symbol
					xmlns="http://www.w3.org/2000/svg"
					id="social-vk"
					fill="none"
					viewBox="0 0 35 35"
				>
					<path
						fill="currentColor"
						fill-rule="evenodd"
						d="M12.774.01C8.025.083 5.84.4 4.094 1.278a5.965 5.965 0 0 0-1.569 1.12c-.734.713-1.215 1.47-1.612 2.53C.445 6.181.166 8.027.07 10.51.006 12.105 0 12.755 0 17.5s.007 5.433.07 6.993c.16 4.065.75 6.217 2.12 7.767.905 1.022 2.075 1.7 3.631 2.1 1.203.31 2.684.49 4.683.57 1.54.062 2.293.069 6.991.069 4.849 0 5.54-.008 7.186-.079 2.65-.114 4.436-.42 5.765-.986a6.307 6.307 0 0 0 2.186-1.493c1.22-1.256 1.876-3.027 2.144-5.788.193-1.991.237-4.05.22-10.293-.01-3.689-.02-4.486-.073-5.823-.059-1.514-.19-2.852-.375-3.84-.344-1.83-.953-3.145-1.919-4.143-1.059-1.096-2.351-1.729-4.283-2.1C27.1.215 25.8.106 23.25.028 22.428.003 14.198-.01 12.774.011Zm-2.86 10.985c.064 1.739.323 3.299.768 4.636.366 1.102.879 2.1 1.48 2.881.383.497.878.992 1.334 1.333.475.355 1.103.68 1.575.817.094.027.186.055.204.061.03.012.032-.363.032-5.037v-5.05h3.77v5.76l.11-.013c.166-.02.574-.123.78-.198.802-.293 1.542-.79 2.291-1.542a9.281 9.281 0 0 0 1.72-2.406c.256-.512.436-.952.563-1.383l.064-.217h3.784l-.013.083c-.023.144-.148.662-.219.908-.515 1.778-1.61 3.525-3.063 4.893-.562.53-1.264 1.071-1.715 1.325-.044.024-.08.052-.08.062 0 .01.042.035.092.058.49.216 1.31.745 1.97 1.27.584.465 1.413 1.31 1.836 1.87l.183.241a11.902 11.902 0 0 1 .79 1.211c.173.285.477.921.67 1.4.168.419.436 1.238.413 1.26-.006.006-.94.011-2.077.011H25.11l-.054-.152c-.676-1.908-1.817-3.333-3.392-4.236a6.473 6.473 0 0 0-1.8-.691 6.307 6.307 0 0 0-.761-.126c-.021 0-.026.467-.026 2.603v2.602h-.358c-2.308-.003-4.237-.407-5.995-1.257a10.87 10.87 0 0 1-2.002-1.275c-1.01-.823-1.824-1.77-2.577-2.997-.18-.294-.59-1.085-.723-1.398a15.677 15.677 0 0 1-.432-1.086 18.745 18.745 0 0 1-.43-1.405c-.342-1.325-.535-2.612-.63-4.213a13.715 13.715 0 0 1-.031-.947c0-.008.901-.015 2.001-.015h2l.014.359Z"
						clip-rule="evenodd"
					/>
				</symbol>
				<symbol
					xmlns="http://www.w3.org/2000/svg"
					id="social-yt"
					fill="none"
					viewBox="0 0 42 41"
				>
					<g clip-path="url(#a)">
						<path
							fill="currentColor"
							d="M40.489 9.95c-.473-1.8-1.858-3.218-3.614-3.703-3.208-.9-16.042-.9-16.042-.9S8 5.348 4.79 6.214c-1.72.483-3.14 1.937-3.612 3.736C.333 13.237.333 20.054.333 20.054s0 6.852.845 10.104c.473 1.8 1.857 3.219 3.613 3.703 3.242.9 16.042.9 16.042.9s12.834 0 16.042-.866c1.756-.484 3.141-1.903 3.614-3.702.844-3.287.844-10.104.844-10.104s.034-6.852-.844-10.139ZM16.747 26.352V13.757l10.672 6.297-10.672 6.298Z"
						/>
					</g>
				</symbol>
				<symbol
					xmlns="http://www.w3.org/2000/svg"
					id="spinner"
					fill="none"
					viewBox="0 0 23 25"
				>
					<path
						fill="currentColor"
						d="M22.3 4.74a12.5 12.5 0 1 0-11.243 20.176l.29-2.498a9.985 9.985 0 1 1 8.981-16.116L22.3 4.74Z"
					/>
				</symbol>
				<symbol
					xmlns="http://www.w3.org/2000/svg"
					id="steam"
					fill="none"
					viewBox="0 0 46 46"
				>
					<g fill="currentColor" clip-path="url(#a)">
						<path d="m15.13 35.427-4.525-1.748a5.588 5.588 0 0 0 11.006-1.357 5.59 5.59 0 0 0-5.587-5.584 5.549 5.549 0 0 0-3.013.886l4.469 1.723a3.262 3.262 0 0 1 1.867 4.212 3.256 3.256 0 0 1-4.216 1.868Zm17.24-13.049a6.93 6.93 0 0 0 6.924-6.924 6.93 6.93 0 0 0-6.923-6.923c-3.815 0-6.924 3.104-6.924 6.923 0 3.815 3.109 6.924 6.924 6.924Zm0-11.8a4.882 4.882 0 0 1 4.881 4.876 4.882 4.882 0 0 1-4.88 4.877 4.882 4.882 0 0 1-4.877-4.877 4.882 4.882 0 0 1 4.877-4.877Z" />
						<path d="M39.97.002H6.03A6.03 6.03 0 0 0 0 6.032v16.559l8.773 3.39a9.402 9.402 0 0 1 6.98-3.27l5.27-7.033c0-6.234 5.057-11.287 11.288-11.287 6.234 0 11.287 5.053 11.287 11.287 0 3.421-1.526 6.488-3.93 8.559a11.259 11.259 0 0 1-7.357 2.728c-.295 0-.587-.014-.875-.038l-6.126 4.617c.014.193.021.39.021.587 0 5.204-4.22 9.43-9.423 9.43-5.204 0-9.424-4.223-9.424-9.43v-.053L0 29.574v10.391c0 3.33 2.7 6.03 6.03 6.03h33.94c3.33 0 6.03-2.7 6.03-6.03V6.036c0-3.33-2.7-6.034-6.03-6.034Z" />
					</g>
				</symbol>
				<symbol
					xmlns="http://www.w3.org/2000/svg"
					id="toast-error"
					fill="none"
					viewBox="0 0 35 35"
				>
					<g fill="currentColor" clip-path="url(#a)">
						<path d="m19.741 17.5 5.622-5.622a1.59 1.59 0 0 0-2.248-2.247l.001-.001-5.622 5.621-5.622-5.621a1.59 1.59 0 0 0-2.247 2.248l-.001-.001 5.621 5.622-5.621 5.622a1.591 1.591 0 1 0 2.247 2.248l.001-.001 5.622-5.622 5.622 5.622a1.59 1.59 0 1 0 2.249-2.247l-.002-.002-5.622-5.619Z" />
						<path d="M17.5 32.813a15.313 15.313 0 1 1 0-30.626 15.313 15.313 0 0 1 0 30.625Zm0 2.187a17.5 17.5 0 1 0 0-35 17.5 17.5 0 0 0 0 35Z" />
					</g>
				</symbol>
				<symbol
					xmlns="http://www.w3.org/2000/svg"
					id="toast-success"
					fill="none"
					viewBox="0 0 35 35"
				>
					<g fill="currentColor" clip-path="url(#a)">
						<path d="M17.5 32.813a15.313 15.313 0 1 1 0-30.626 15.313 15.313 0 0 1 0 30.625Zm0 2.187a17.5 17.5 0 1 0 0-35 17.5 17.5 0 0 0 0 35Z" />
						<path d="M23.997 10.872a.513.513 0 0 0-.044.048l-7.597 9.68-4.579-4.58a1.64 1.64 0 0 0-2.318 2.318l5.788 5.79a1.64 1.64 0 0 0 2.36-.044L26.34 13.17a1.64 1.64 0 0 0-2.343-2.297Z" />
					</g>
				</symbol>
				<symbol
					xmlns="http://www.w3.org/2000/svg"
					id="toast-warning"
					fill="none"
					viewBox="0 0 35 35"
				>
					<g clip-path="url(#a)">
						<path
							fill="currentColor"
							d="M17.5 0a17.5 17.5 0 1 1 0 35 17.5 17.5 0 0 1 0-35Zm0 32.5a15 15 0 1 0 0-30 15 15 0 0 0 0 30Zm1.875-6.875a1.875 1.875 0 1 1-3.75 0 1.875 1.875 0 0 1 3.75 0ZM17.5 7.5a1.25 1.25 0 0 1 1.25 1.25V20a1.25 1.25 0 0 1-2.5 0V8.75A1.25 1.25 0 0 1 17.5 7.5Z"
						/>
					</g>
				</symbol>
				<symbol
					xmlns="http://www.w3.org/2000/svg"
					id="top-up"
					fill="none"
					viewBox="0 0 29 29"
				>
					<path
						fill="currentColor"
						fill-rule="evenodd"
						d="M17.03 3a.716.716 0 0 0-.318.073l-8.775 4.29a.717.717 0 1 0 .63 1.29l8.135-3.979 1.662 3.335a.718.718 0 0 0 1.322-.092.717.717 0 0 0-.039-.547L17.67 3.397A.717.717 0 0 0 17.03 3Zm6.464 17.362a.717.717 0 0 1 1.224.507v2.772a.717.717 0 0 1-.716.717H13.717A.714.714 0 0 1 13 23.64a.718.718 0 0 1 .717-.717h9.567v-2.055a.72.72 0 0 1 .21-.507ZM5.787 5.175a.717.717 0 0 1 .106-.008h2.25a.717.717 0 0 1 0 1.434H5.974a1.253 1.253 0 0 0-.724.407c-.184.216-.294.52-.29.804.005.3.137.618.347.832.21.214.525.353.824.364a.585.585 0 0 1 .072.007h15.499V6.6h-1.2a.718.718 0 1 1 0-1.434h1.917a.717.717 0 0 1 .717.717v3.13h.867a.717.717 0 0 1 .717.718v3.007a.718.718 0 0 1-1.434 0v-2.29h-.738a.709.709 0 0 1-.257 0H5.085v.453l.006.512a.74.74 0 0 1-.006.105l.006 2.327a.717.717 0 0 1-1.434 0l-.006-2.96-.03-2.388c0-.048.004-.097.013-.144-.012-.054-.026-.107-.04-.16-.033-.119-.066-.237-.068-.361a2.648 2.648 0 0 1 2.26-2.658Zm13.29 9.592c.476-.6 1.254-1.013 2.172-1.013h5.342a.717.717 0 0 1 .717.717v4.748a.717.717 0 0 1-.717.717h-5.342c-.902 0-1.67-.417-2.146-1.01-.476-.595-.695-1.338-.702-2.074-.007-.737.199-1.486.676-2.085Zm6.797.422h-4.625c-.525 0-.819.18-1.05.47-.23.291-.369.73-.364 1.18.004.45.15.894.388 1.19.237.295.53.472 1.026.472h4.625V15.19ZM12 20.079a4.5 4.5 0 1 1-9 0 4.5 4.5 0 0 1 9 0Zm1 0a5.5 5.5 0 1 1-11 0 5.5 5.5 0 0 1 11 0Zm-5.5-3.055a.611.611 0 0 0-.611.611v1.833H5.056a.611.611 0 1 0 0 1.223h1.833v1.833a.611.611 0 0 0 1.222 0v-1.833h1.833a.611.611 0 1 0 0-1.223H8.111v-1.833a.611.611 0 0 0-.611-.611Z"
						clip-rule="evenodd"
					/>
				</symbol>
				<symbol
					xmlns="http://www.w3.org/2000/svg"
					id="upload"
					fill="none"
					viewBox="0 0 24 24"
				>
					<path
						stroke="currentColor"
						stroke-linecap="round"
						stroke-linejoin="round"
						stroke-width="1.5"
						d="M12 17v-7m0 0 3 3m-3-3-3 3"
					/>
					<path
						stroke="currentColor"
						stroke-linecap="round"
						stroke-width="1.5"
						d="M16 7H8m14 5c0 4.714 0 7.071-1.465 8.535C19.072 22 16.714 22 12 22s-7.071 0-8.536-1.465C2 19.072 2 16.714 2 12s0-7.071 1.464-8.536C4.93 2 7.286 2 12 2c4.714 0 7.071 0 8.535 1.464.974.974 1.3 2.343 1.41 4.536"
					/>
				</symbol>
				<symbol
					xmlns="http://www.w3.org/2000/svg"
					id="user-profile"
					fill="none"
					viewBox="0 0 17 17"
				>
					<g fill="currentColor" clip-path="url(#a)">
						<path d="M8.5 7a3.39 3.39 0 0 0 2.475-1.025A3.386 3.386 0 0 0 12 3.5a3.39 3.39 0 0 0-1.025-2.475A3.387 3.387 0 0 0 8.5 0a3.39 3.39 0 0 0-2.475 1.025A3.387 3.387 0 0 0 5 3.5c0 .962.345 1.794 1.026 2.475A3.387 3.387 0 0 0 8.5 7Zm7.043 6.072a10.225 10.225 0 0 0-.137-1.074 8.458 8.458 0 0 0-.265-1.08 5.337 5.337 0 0 0-.444-1.007 3.8 3.8 0 0 0-.67-.873 2.951 2.951 0 0 0-.96-.604 3.323 3.323 0 0 0-1.229-.222c-.173 0-.34.071-.665.282l-.693.447a3.972 3.972 0 0 1-.897.395 3.562 3.562 0 0 1-1.097.177c-.365 0-.734-.06-1.098-.177a3.963 3.963 0 0 1-.896-.395 94.965 94.965 0 0 1-.694-.447c-.324-.211-.491-.282-.665-.282a3.32 3.32 0 0 0-1.228.222 2.95 2.95 0 0 0-.961.604 3.802 3.802 0 0 0-.67.873 5.345 5.345 0 0 0-.444 1.007 8.481 8.481 0 0 0-.264 1.08 9.92 9.92 0 0 0-.137 1.075 14.57 14.57 0 0 0-.034 1.003c0 .888.282 1.606.838 2.136.55.523 1.276.788 2.16.788h8.186c.884 0 1.61-.265 2.16-.788.557-.53.839-1.248.839-2.136 0-.342-.012-.68-.035-1.004Z" />
					</g>
				</symbol>
				<symbol
					xmlns="http://www.w3.org/2000/svg"
					id="wallet-alt"
					fill="none"
					viewBox="0 0 29 29"
				>
					<g fill="currentColor" clip-path="url(#a)">
						<path d="M27.3 13.89v-3.418a3.119 3.119 0 0 0-3-3.113V5.261c0-1.093-.89-1.983-1.983-1.983H16.86l-.705-1.959A1.97 1.97 0 0 0 15.13.195a1.969 1.969 0 0 0-1.52-.068L3.707 3.732a1.97 1.97 0 0 0-1.12 1.027 1.97 1.97 0 0 0-.064 1.518l.398 1.086A3.119 3.119 0 0 0 0 10.472v15.406a3.119 3.119 0 0 0 3.115 3.115h21.07a3.119 3.119 0 0 0 3.116-3.115v-3.532A1.985 1.985 0 0 0 29 20.384v-4.532c0-.996-.74-1.824-1.7-1.961Zm0 6.494a.284.284 0 0 1-.282.283h-4.532a2.552 2.552 0 0 1-2.549-2.549 2.552 2.552 0 0 1 2.55-2.549h4.53c.157 0 .284.127.284.283v4.532ZM4.12 5.692a.282.282 0 0 1 .169-.363l9.904-3.605a.282.282 0 0 1 .363.17l.498 1.384h-.383c-1.093 0-1.982.89-1.982 1.983v2.095h-7.96l-.61-1.664Zm18.48-.431v2.095h-8.212V5.261c0-.156.127-.283.283-.283h7.646c.157 0 .284.127.284.283Zm1.587 22.033H3.116a1.418 1.418 0 0 1-1.417-1.416V10.472c0-.781.635-1.416 1.416-1.416h21.07c.781 0 1.417.635 1.417 1.416v3.398h-3.116a4.253 4.253 0 0 0-4.248 4.248 4.253 4.253 0 0 0 4.248 4.248h3.116v3.512c0 .78-.636 1.416-1.416 1.416Z" />
						<path d="M22.486 18.968a.85.85 0 1 0 0-1.7.85.85 0 0 0 0 1.7Z" />
					</g>
				</symbol>
				<symbol
					xmlns="http://www.w3.org/2000/svg"
					id="wallet"
					fill="none"
					viewBox="0 0 22 22"
				>
					<path
						fill="currentColor"
						d="M3.5 5.5c.174-1.248.745-1.719 1.938-1.719h10.749a.687.687 0 0 1 .656.688V5.5H3.5Zm14.718.03V4.47a2.062 2.062 0 0 0-2.031-2.063H5.437c-2.99 0-3.33 2.437-3.375 3.702a.155.155 0 0 0 0 .038v11.042a2.062 2.062 0 0 0 2.063 2.062h13.75a2.062 2.062 0 0 0 2.062-2.063V7.563a2.062 2.062 0 0 0-1.719-2.031Zm-2.234 8.564a1.547 1.547 0 1 1 0-3.095 1.547 1.547 0 0 1 0 3.095Z"
					/>
				</symbol>
			</svg>